<?xml version="1.0" encoding="utf-8"?>
<!-- Generator: Adobe Illustrator 23.0.5, SVG Export Plug-In . SVG Version: 6.00 Build 0)  -->
<svg version="1.1" id="Layer_1" xmlns="http://www.w3.org/2000/svg" xmlns:xlink="http://www.w3.org/1999/xlink" x="0px" y="0px"
	 viewBox="0 0 253.6 238.5" style="enable-background:new 0 0 253.6 238.5;" xml:space="preserve">
<style type="text/css">
	.st0{fill:#F9BFC1;}
	.st1{fill:#FBCECF;}
	.st2{fill:#F9C4C2;}
	.st3{fill:#E0B6C1;}
	.st4{fill:#7F5F7D;}
	.st5{fill:none;stroke:#D82027;stroke-width:0.2;stroke-miterlimit:10;}
	.st6{fill:#FDE8E7;}
	.st7{fill:#77CBC6;}
	.st8{fill:#67C7C1;}
	.st9{fill:#F9BFC2;}
	.st10{fill:none;stroke:#FAA84E;stroke-width:0.2;stroke-miterlimit:10;}
	.st11{fill:#F3BBB2;}
	.st12{fill:#AE529F;}
	.st13{fill:none;stroke:#AE529F;stroke-width:0.2;stroke-miterlimit:10;}
	.st14{fill:#72CAC2;}
	.st15{fill:#31353B;}
	.st16{fill:#2C2F35;}
	.st17{fill:#1C161A;}
	.st18{fill:#F68D36;}
	.st19{fill:#C1B0C0;}
	.st20{fill:#B76982;}
	.st21{fill:#F68832;}
	.st22{fill:#FAA751;}
	.st23{fill:#1B161B;}
	.st24{fill:#29B9CC;}
	.st25{fill:#676767;}
	.st26{fill:none;stroke:#FAFBFC;stroke-width:0.5;stroke-miterlimit:10;}
	.st27{fill:#FFFFFF;}
	.st28{fill:none;stroke:#FFFFFF;stroke-width:0.5;stroke-miterlimit:10;}
	.st29{fill:none;stroke:#FFFFFF;stroke-width:0.2;stroke-miterlimit:10;}
	.st30{fill:none;stroke:#676767;stroke-miterlimit:10;}
	.st31{fill:#9ED9DC;}
	.st32{fill:#0F222F;}
	.st33{fill:#AA5A43;}
	.st34{fill:none;stroke:#FFF6F3;stroke-miterlimit:10;}
	.st35{fill:#9D6481;}
	.st36{fill:#8B5041;}
	.st37{fill:none;stroke:#412E2B;stroke-miterlimit:10;}
	.st38{fill:#DED23C;}
	.st39{fill:#AE6539;}
	.st40{fill:#FAAB4B;}
	.st41{fill:#1A181C;}
	.st42{fill:#FAA941;}
	.st43{fill:#AB5A43;}
	.st44{fill:#766479;}
	.st45{fill:#EC6B48;}
	.st46{fill:#FAA84E;}
	.st47{fill:#0A2640;}
	.st48{fill:#38272B;}
	.st49{fill:#B46C84;}
	.st50{fill:#6A4C67;}
	.st51{fill:#F07047;}
	.st52{fill:#ABA4AB;}
	.st53{fill:#2E2A2D;}
	.st54{fill:#F47645;}
	.st55{fill:#312B32;}
	.st56{fill:#F39AA7;}
	.st57{fill:#B66D88;}
	.st58{fill:#A05671;}
	.st59{fill:#09273C;}
	.st60{fill:#FAC2C1;}
</style>
<ellipse class="st0" cx="141.3" cy="104" rx="93.3" ry="79.9"/>
<ellipse class="st1" cx="173.9" cy="183.4" rx="12.2" ry="11.9"/>
<ellipse class="st0" cx="206.3" cy="150" rx="37.4" ry="36.1"/>
<path class="st2" d="M207,129.2"/>
<ellipse class="st3" cx="128.2" cy="22" rx="12" ry="11.8"/>
<ellipse class="st4" cx="150.2" cy="34.5" rx="3.9" ry="3.8"/>
<path class="st5" d="M101.4,58.5c3.3,2.4,6.1,5.3,8.6,8.5h25.6c0.6,1.4,1.1,2.8,1.6,4.3"/>
<path class="st5" d="M42.4,146.8c-1.8-1.1-3.5-2.3-5.2-3.6v-42c-1.1-3.6-1.6-7.4-1.6-11.3s0.6-7.7,1.6-11.3v-1.4v-7.3
	c0-2.1,1.7-3.7,3.7-3.7h2.5c0.2-0.3,0.4-0.5,0.6-0.8c7.5-9.6,19.4-15.8,32.7-15.8c4.8,0,9.4,0.8,13.7,2.3"/>
<path class="st5" d="M43.5,66.1c0.2-0.3,0.4-0.5,0.6-0.8c7.5-9.6,19.4-15.8,32.7-15.8c4.8,0,9.4,0.8,13.7,2.3"/>
<path class="st5" d="M37.2,102.1c-1.1-3.6-1.6-7.4-1.6-11.3c0-3.9,0.6-7.7,1.6-11.3c0.1-0.4,0.2-0.8,0.4-1.2"/>
<path class="st5" d="M109.9,67c-2.4-3.2-5.3-6.1-8.6-8.5"/>
<path class="st5" d="M45.4,67L44,66.3c-0.2,0.2-0.4,0.5-0.6,0.8h-2.5c-2.1,0-3.7,1.7-3.7,3.7v7.3l0.4,0.2"/>
<line class="st5" x1="45.1" y1="72.2" x2="45.1" y2="72.2"/>
<path class="st6" d="M195.3,63.6c0,0,0.5,0.9,1,0.9c0.5,0,0.3,0.7,0,0.8c-0.2,0.1-1.3,0-1.4-0.1C194.8,65.2,195.1,63.9,195.3,63.6z"
	/>
<g>
	<g>
		<path class="st7" d="M175.8,25.7c0,0-0.5-0.5,0.5-1.9c0.9-1.4,1.8-2.5,1.8-2.5l-1.1-0.7l-2.6,3c0,0-0.8,0.5-1.8-0.6
			c-1-1.2-2-2.6-2-2.6l-0.9,0.7l1.8,3.3c0,0,0.3,1.2-0.8,1.6c-1.2,0.4-3.1,1.4-3.1,1.4l0.4,1.4l3.4-1.3c0,0,0.9-0.2,1,0.7
			c0.1,0.9,0.7,4.2,0.7,4.2l1.2-0.1l0.4-4c0,0,0.2-1,1.6-0.7c1.3,0.3,3.6,1,3.6,1l0.1-1.1L175.8,25.7z M173.5,27.4
			c-0.8,0-1.4-0.6-1.4-1.4c0-0.8,0.6-1.4,1.4-1.4s1.4,0.6,1.4,1.4C174.9,26.7,174.3,27.4,173.5,27.4z"/>
		<ellipse class="st7" cx="173.5" cy="25.9" rx="0.8" ry="0.8"/>
	</g>
	<path class="st8" d="M180.5,26.5h1.6l0-1.8h-1.6c-0.1-0.4-0.1-0.8-0.2-1.2l1.3-0.4l-0.6-1.6l-1.3,0.5c-0.2-0.3-0.4-0.7-0.6-0.9
		l1.1-0.8l-1.7-1.4l-0.7,0.8c-0.2-0.2-0.5-0.4-0.8-0.5l0.6-1l-1.7-1l-0.7,1.3c-0.2-0.1-0.5-0.1-0.7-0.1l-0.1-1.2l-2.1,0.1l0.2,1.1
		c-0.4,0.1-0.7,0.1-1,0.3l-0.5-1l-1.5,0.8l0.6,0.8c-0.4,0.2-0.7,0.5-1,0.7l-0.8-0.8l-1.3,1.3l0.9,0.7l0,0c-0.2,0.2-0.3,0.5-0.5,0.8
		l-1.1-0.5l-0.8,1.8l1.2,0.4c-0.1,0.3-0.1,0.6-0.2,1l-1.8,0l0.2,1.9l1.6,0c0.1,0.3,0.1,0.6,0.2,0.9l-1.3,0.4l0.7,1.9l1.4-0.6
		c0.1,0.2,0.3,0.4,0.4,0.6l-1,1.3l1.3,1.5l1.3-1.3c0.3,0.2,0.6,0.4,0.9,0.6l-0.8,1.4l1.6,0.5l0.7-1.4c0.3,0.1,0.5,0.1,0.8,0.1
		l0.3,1.5l2,0l-0.1-1.6c0.2,0,0.3-0.1,0.5-0.1l0.6,1.7l1.8-0.6l-0.7-1.7c0.3-0.2,0.6-0.4,0.9-0.6l1.3,1.2l1.4-1.5l-1.3-1.1
		c0.2-0.2,0.3-0.5,0.5-0.7l0.9,0.7l0.9-1.5l-1.2-0.9C180.4,27.1,180.5,26.8,180.5,26.5z M173.5,31.5c-3.2,0-5.7-2.6-5.7-5.8
		c0-3.2,2.6-5.8,5.7-5.8c3.2,0,5.7,2.6,5.7,5.8C179.2,28.9,176.7,31.5,173.5,31.5z"/>
</g>
<path class="st9" d="M149.7,173.8l-0.1,1c0,0,1.3,1.7,2.7,1.6"/>
<path class="st10" d="M157.2,189.3l2.7-1c0,0,1,0.2,0.4,0.9s-0.7,0.3-0.7,0.3l2.2,0c0,0,0.8,0,0.2,0.5s-1.2,0.3-1.2,0.3l1.3,0.1
	c0,0,0.7,0.3,0,0.5c-0.6,0.2-1.3,0.1-1.3,0.1l1.3,0.2c0,0,0.3,0.5-0.3,0.5s-1.1,0-1.1,0l0.9,0.2c0,0,0.4,0.3-0.4,0.3
	c-0.9,0.1-2.4,0-2.8-0.1c-0.4-0.1-1.3-0.7-1.3-0.7L157.2,189.3z"/>
<path class="st11" d="M178.2,208.3c0,0,0.4,0.4-0.8,1.1c-0.8,0.5-3.5-0.2-3.5-0.2"/>
<polygon class="st12" points="82.6,219.1 74.4,219.1 76.2,216.7 84.4,216.7 "/>
<polygon class="st12" points="85.2,215.9 77,215.9 78.8,213.5 86.9,213.5 "/>
<polygon class="st12" points="85.2,215.9 77,215.9 78.8,213.5 86.9,213.5 "/>
<polyline class="st12" points="86.9,213.5 85.2,215.9 77,215.9 78.8,213.5 "/>
<polyline class="st12" points="78.8,213.5 86.9,213.5 85.2,215.9 "/>
<polyline class="st12" points="78.8,213.5 86.9,213.5 85.2,215.9 "/>
<line class="st13" x1="86.9" y1="213.5" x2="85.2" y2="215.9"/>
<line class="st13" x1="86.9" y1="213.5" x2="85.2" y2="215.9"/>
<polygon class="st12" points="94.4,219.1 86.2,219 88,216.6 96.2,216.6 "/>
<polygon class="st12" points="94.4,219.1 86.2,219 88,216.6 96.2,216.6 "/>
<polygon class="st12" points="97,215.9 88.8,215.8 90.6,213.5 98.7,213.5 "/>
<polygon class="st12" points="97,215.9 88.8,215.8 90.6,213.5 98.7,213.5 "/>
<polyline class="st12" points="98.7,213.5 97,215.9 88.8,215.8 90.6,213.5 "/>
<polyline class="st12" points="90.6,213.5 98.7,213.5 97,215.9 "/>
<polyline class="st12" points="90.6,213.5 98.7,213.5 97,215.9 "/>
<line class="st12" x1="98.7" y1="213.5" x2="97" y2="215.9"/>
<line class="st12" x1="98.7" y1="213.5" x2="97" y2="215.9"/>
<polygon class="st12" points="97,215.9 88.8,215.8 90.6,213.5 98.7,213.5 "/>
<polygon class="st12" points="97,215.9 88.8,215.8 90.6,213.5 98.7,213.5 "/>
<polyline class="st12" points="98.7,213.5 97,215.9 88.8,215.8 90.6,213.5 "/>
<polyline class="st12" points="90.6,213.5 98.7,213.5 97,215.9 "/>
<polyline class="st12" points="90.6,213.5 98.7,213.5 97,215.9 "/>
<line class="st12" x1="98.7" y1="213.5" x2="97" y2="215.9"/>
<line class="st12" x1="98.7" y1="213.5" x2="97" y2="215.9"/>
<polygon class="st12" points="94.4,219.1 86.2,219 88,216.6 96.2,216.6 "/>
<polygon class="st12" points="97,215.9 88.8,215.8 90.6,213.5 98.7,213.5 "/>
<polygon class="st12" points="97,215.9 88.8,215.8 90.6,213.5 98.7,213.5 "/>
<polyline class="st12" points="98.7,213.5 97,215.9 88.8,215.8 90.6,213.5 "/>
<polyline class="st12" points="90.6,213.5 98.7,213.5 97,215.9 "/>
<polyline class="st12" points="90.6,213.5 98.7,213.5 97,215.9 "/>
<line class="st12" x1="98.7" y1="213.5" x2="97" y2="215.9"/>
<line class="st12" x1="98.7" y1="213.5" x2="97" y2="215.9"/>
<polygon class="st12" points="97,215.9 88.8,215.8 90.6,213.5 98.7,213.5 "/>
<polygon class="st12" points="97,215.9 88.8,215.8 90.6,213.5 98.7,213.5 "/>
<line class="st12" x1="98.7" y1="213.5" x2="97" y2="215.9"/>
<line class="st12" x1="98.7" y1="213.5" x2="97" y2="215.9"/>
<polygon class="st12" points="104.9,219.1 96.7,219 98.5,216.6 106.6,216.6 "/>
<polygon class="st12" points="107.5,215.9 99.3,215.8 101.1,213.5 109.2,213.5 "/>
<polygon class="st12" points="107.5,215.9 99.3,215.8 101.1,213.5 109.2,213.5 "/>
<polyline class="st12" points="109.2,213.5 107.5,215.9 99.3,215.8 101.1,213.5 "/>
<polyline class="st13" points="101.1,213.5 109.2,213.5 107.5,215.9 "/>
<polyline class="st13" points="101.1,213.5 109.2,213.5 107.5,215.9 "/>
<line class="st13" x1="109.2" y1="213.5" x2="107.5" y2="215.9"/>
<line class="st13" x1="109.2" y1="213.5" x2="107.5" y2="215.9"/>
<polygon class="st12" points="107.5,215.9 99.3,215.8 101.1,213.5 109.2,213.5 "/>
<polygon class="st12" points="107.5,215.9 99.3,215.8 101.1,213.5 109.2,213.5 "/>
<polyline class="st12" points="109.2,213.5 107.5,215.9 99.3,215.8 101.1,213.5 "/>
<polyline class="st13" points="101.1,213.5 109.2,213.5 107.5,215.9 "/>
<polyline class="st13" points="101.1,213.5 109.2,213.5 107.5,215.9 "/>
<line class="st13" x1="109.2" y1="213.5" x2="107.5" y2="215.9"/>
<line class="st13" x1="109.2" y1="213.5" x2="107.5" y2="215.9"/>
<polygon class="st12" points="107.5,215.9 99.3,215.8 101.1,213.5 109.2,213.5 "/>
<polygon class="st12" points="107.5,215.9 99.3,215.8 101.1,213.5 109.2,213.5 "/>
<polyline class="st12" points="109.2,213.5 107.5,215.9 99.3,215.8 101.1,213.5 "/>
<polyline class="st13" points="101.1,213.5 109.2,213.5 107.5,215.9 "/>
<polyline class="st13" points="101.1,213.5 109.2,213.5 107.5,215.9 "/>
<line class="st13" x1="109.2" y1="213.5" x2="107.5" y2="215.9"/>
<line class="st13" x1="109.2" y1="213.5" x2="107.5" y2="215.9"/>
<polygon class="st12" points="107.5,215.9 99.3,215.8 101.1,213.5 109.2,213.5 "/>
<polygon class="st12" points="107.5,215.9 99.3,215.8 101.1,213.5 109.2,213.5 "/>
<path class="st13" d="M101.1,213.5"/>
<path class="st13" d="M107.5,215.9"/>
<path class="st13" d="M109.2,213.5"/>
<polygon class="st12" points="116.4,219.1 108.2,219.1 110,216.7 118.2,216.7 "/>
<polygon class="st12" points="116.4,219.1 108.2,219.1 110,216.7 118.2,216.7 "/>
<polygon class="st12" points="119,215.9 110.8,215.9 112.6,213.5 120.7,213.5 "/>
<polygon class="st12" points="119,215.9 110.8,215.9 112.6,213.5 120.7,213.5 "/>
<polyline class="st12" points="120.7,213.5 119,215.9 110.8,215.9 112.6,213.5 "/>
<polyline class="st12" points="112.6,213.5 120.7,213.5 119,215.9 "/>
<polyline class="st12" points="112.6,213.5 120.7,213.5 119,215.9 "/>
<line class="st12" x1="120.7" y1="213.5" x2="119" y2="215.9"/>
<line class="st12" x1="120.7" y1="213.5" x2="119" y2="215.9"/>
<polygon class="st12" points="119,215.9 110.8,215.9 112.6,213.5 120.7,213.5 "/>
<polygon class="st12" points="119,215.9 110.8,215.9 112.6,213.5 120.7,213.5 "/>
<polyline class="st12" points="120.7,213.5 119,215.9 110.8,215.9 112.6,213.5 "/>
<polyline class="st12" points="112.6,213.5 120.7,213.5 119,215.9 "/>
<polyline class="st12" points="112.6,213.5 120.7,213.5 119,215.9 "/>
<line class="st12" x1="120.7" y1="213.5" x2="119" y2="215.9"/>
<line class="st12" x1="120.7" y1="213.5" x2="119" y2="215.9"/>
<polygon class="st12" points="116.4,219.1 108.2,219.1 110,216.7 118.2,216.7 "/>
<polygon class="st12" points="116.4,219.1 108.2,219.1 110,216.7 118.2,216.7 "/>
<polygon class="st12" points="119,215.9 110.8,215.9 112.6,213.5 120.7,213.5 "/>
<polygon class="st12" points="119,215.9 110.8,215.9 112.6,213.5 120.7,213.5 "/>
<polyline class="st12" points="120.7,213.5 119,215.9 110.8,215.9 112.6,213.5 "/>
<polyline class="st12" points="112.6,213.5 120.7,213.5 119,215.9 "/>
<polyline class="st12" points="112.6,213.5 120.7,213.5 119,215.9 "/>
<line class="st12" x1="120.7" y1="213.5" x2="119" y2="215.9"/>
<line class="st12" x1="120.7" y1="213.5" x2="119" y2="215.9"/>
<polygon class="st12" points="119,215.9 110.8,215.9 112.6,213.5 120.7,213.5 "/>
<polygon class="st12" points="119,215.9 110.8,215.9 112.6,213.5 120.7,213.5 "/>
<polyline class="st12" points="120.7,213.5 119,215.9 110.8,215.9 112.6,213.5 "/>
<polyline class="st12" points="112.6,213.5 120.7,213.5 119,215.9 "/>
<polyline class="st12" points="112.6,213.5 120.7,213.5 119,215.9 "/>
<line class="st12" x1="120.7" y1="213.5" x2="119" y2="215.9"/>
<line class="st12" x1="120.7" y1="213.5" x2="119" y2="215.9"/>
<polygon class="st12" points="116.4,219.1 108.2,219.1 110,216.7 118.2,216.7 "/>
<polygon class="st12" points="116.4,219.1 108.2,219.1 110,216.7 118.2,216.7 "/>
<polygon class="st12" points="119,215.9 110.8,215.9 112.6,213.5 120.7,213.5 "/>
<polygon class="st12" points="119,215.9 110.8,215.9 112.6,213.5 120.7,213.5 "/>
<polyline class="st12" points="120.7,213.5 119,215.9 110.8,215.9 112.6,213.5 "/>
<polyline class="st12" points="112.6,213.5 120.7,213.5 119,215.9 "/>
<polyline class="st12" points="112.6,213.5 120.7,213.5 119,215.9 "/>
<line class="st12" x1="120.7" y1="213.5" x2="119" y2="215.9"/>
<line class="st12" x1="120.7" y1="213.5" x2="119" y2="215.9"/>
<polygon class="st12" points="119,215.9 110.8,215.9 112.6,213.5 120.7,213.5 "/>
<polygon class="st12" points="119,215.9 110.8,215.9 112.6,213.5 120.7,213.5 "/>
<polyline class="st12" points="120.7,213.5 119,215.9 110.8,215.9 112.6,213.5 "/>
<polyline class="st12" points="112.6,213.5 120.7,213.5 119,215.9 "/>
<polyline class="st12" points="112.6,213.5 120.7,213.5 119,215.9 "/>
<line class="st12" x1="120.7" y1="213.5" x2="119" y2="215.9"/>
<line class="st12" x1="120.7" y1="213.5" x2="119" y2="215.9"/>
<polygon class="st12" points="116.4,219.1 108.2,219.1 110,216.7 118.2,216.7 "/>
<polygon class="st12" points="119,215.9 110.8,215.9 112.6,213.5 120.7,213.5 "/>
<line class="st12" x1="120.7" y1="213.5" x2="119" y2="215.9"/>
<line class="st12" x1="120.7" y1="213.5" x2="119" y2="215.9"/>
<line class="st12" x1="120.7" y1="213.5" x2="119" y2="215.9"/>
<line class="st12" x1="120.7" y1="213.5" x2="119" y2="215.9"/>
<polygon class="st14" points="182.4,215.4 174.7,215.4 173.4,213 181.1,213 "/>
<path class="st15" d="M116.2,175l0.1,12.6l-11.5,0.1c0,0-1.6-0.6-1.6,2c0,2.6,0,5.3,0,5.3s-0.2,1.4,1.9,1.4c2.1,0,29.9,0.1,29.9,0.1
	l12.9-21.7L116.2,175z"/>
<polygon class="st16" points="50,224.1 65.3,212.2 202.8,212.2 217,223.9 "/>
<polygon class="st17" points="49.7,224.4 51.4,228.2 214.8,228.3 216.8,224.2 "/>
<polygon class="st18" points="82.6,219.1 74.4,219.1 76.2,216.7 84.4,216.7 "/>
<polygon class="st18" points="85.3,216 76.8,215.9 78.7,213.5 87.2,213.5 "/>
<polygon class="st18" points="91.8,222.3 82.9,222.3 85.1,219.6 93.8,219.7 "/>
<polygon class="st18" points="94.4,219.1 86.2,219 88,216.6 96.2,216.6 "/>
<polyline class="st18" points="98.7,213.5 97,215.9 88.8,215.8 90.7,213.4 "/>
<polygon class="st18" points="104.9,219.2 96.7,219.1 98.6,216.4 106.9,216.4 "/>
<polyline class="st18" points="109.6,213.2 107.6,215.9 99.2,215.8 101.2,213.3 "/>
<polygon class="st18" points="116.4,219.1 108.2,219.1 110,216.7 118.2,216.7 "/>
<polygon class="st18" points="119,215.9 110.8,215.9 112.6,213.5 120.7,213.5 "/>
<rect x="134" y="213.2" class="st18" width="8" height="2.5"/>
<rect x="133.9" y="216.4" class="st18" width="8.1" height="2.2"/>
<rect x="143.4" y="213.3" class="st18" width="8.7" height="2.4"/>
<rect x="143.6" y="216.6" class="st18" width="8.9" height="1.8"/>
<rect x="143.9" y="219.9" class="st18" width="9.4" height="2.1"/>
<rect x="154.5" y="213.3" class="st18" width="7.2" height="2.1"/>
<rect x="154.3" y="216.4" class="st18" width="8.4" height="2"/>
<rect x="155.1" y="219.5" class="st18" width="8.6" height="2.6"/>
<rect x="163.7" y="213" class="st18" width="8.3" height="2.4"/>
<rect x="164.5" y="216" class="st18" width="8.8" height="2.4"/>
<rect x="165.9" y="219.7" class="st18" width="9.1" height="1.6"/>
<polygon class="st18" points="184.1,218.4 176.3,218.4 175.1,215.9 182.8,216 "/>
<polygon class="st18" points="185.6,221.7 177.8,221.7 176.5,219.2 184.3,219.3 "/>
<polygon class="st18" points="197.9,221.4 188.6,221.4 187.1,219.2 196.4,219.3 "/>
<polygon class="st18" points="195.6,218.8 186.3,218.8 184.8,216.6 194.1,216.7 "/>
<polygon class="st18" points="193.7,215.3 185,215.3 183.7,212.9 192.3,212.9 "/>
<polygon class="st18" points="203.1,215.4 195.8,215.4 194.7,213 201.9,213 "/>
<polygon class="st18" points="205.7,218.3 198.3,218.4 197.1,216 204.5,216 "/>
<polygon class="st18" points="208,221.5 200.6,221.5 199.4,219.1 206.7,219.2 "/>
<rect x="122.2" y="213.3" class="st18" width="9.7" height="2.4"/>
<rect x="121.2" y="216.5" class="st18" width="10.5" height="2.1"/>
<polygon class="st18" points="141.6,222.2 95.7,222.4 97.1,219.5 141.6,219.5 "/>
<polygon class="st18" points="72,216 65,215.9 67.3,213.6 72,213.6 "/>
<polygon class="st18" points="71,218.9 61.7,219 63.6,216.6 72.8,216.7 "/>
<polygon class="st18" points="67.4,222.9 57.3,222.8 59.3,219.9 69.9,220 "/>
<path class="st18" d="M72.9,220.2c0,0,4.9,0.3,5.6,0.1c0.7-0.2,0.5,0.1,0.5-0.5h3.3l-2.2,2.9l-9.2-0.1L72.9,220.2z"/>
<g>
	<path class="st19" d="M37.2,79.5c-1.1,3.6-1.6,7.4-1.6,11.3c0,3.9,0.6,7.7,1.6,11.3v42c-15.4-11.9-25.3-30.6-25.3-51.7
		c0-8.9,1.8-17.4,5-25.2l20.3,10.9V79.5z"/>
	<path class="st20" d="M101,31.4L90.4,51.9c-4.3-1.5-8.9-2.3-13.7-2.3c-13.3,0-25.1,6.2-32.7,15.8L23.6,54
		c11.7-16.7,30.9-27.5,52.6-27.5C85,26.4,93.4,28.2,101,31.4z"/>
	<path class="st3" d="M135.5,67h-25.6c-2.4-3.2-5.3-6.1-8.6-8.5l11.3-19.7C122.7,45.8,130.7,55.6,135.5,67z"/>
</g>
<g>
	<g>
		<path class="st21" d="M35.2,135.2c0,0-0.9-0.9,0.9-3.6c1.8-2.8,3.5-4.9,3.5-4.9l-2.1-1.3l-5.1,5.8c0,0-1.5,1.1-3.5-1.2
			s-3.9-5.2-3.9-5.2l-1.8,1.4l3.4,6.6c0,0,0.6,2.3-1.6,3.1s-6.1,2.7-6.1,2.7l0.8,2.8l6.6-2.5c0,0,1.7-0.4,1.9,1.3
			c0.2,1.7,1.4,8.2,1.4,8.2L32,148l0.7-7.8c0,0,0.5-1.9,3-1.4c2.6,0.6,7,1.9,7,1.9l0.2-2.2L35.2,135.2z M30.8,138.4
			c-1.5,0-2.7-1.2-2.7-2.8s1.2-2.8,2.7-2.8c1.5,0,2.7,1.2,2.7,2.8S32.3,138.4,30.8,138.4z"/>
		<ellipse class="st21" cx="30.9" cy="135.6" rx="1.6" ry="1.5"/>
	</g>
	<path class="st21" d="M44.5,136.8h3.2l-0.1-3.6h-3.1c-0.1-0.8-0.3-1.6-0.5-2.3l2.4-0.7l-1.2-3.1l-2.5,0.9c-0.4-0.7-0.8-1.3-1.2-1.9
		l2-1.5l-3.4-2.7l-1.3,1.6c-0.5-0.4-1-0.7-1.5-1l1.2-1.9l-3.4-2l-1.4,2.6c-0.4-0.1-0.9-0.2-1.4-0.2l-0.2-2.3l-4.1,0.2l0.3,2.2
		c-0.7,0.1-1.4,0.3-2,0.5l-0.9-1.9l-2.9,1.6l1.1,1.6c-0.7,0.4-1.3,0.9-2,1.4l-1.5-1.5l-2.5,2.5l1.7,1.5l0,0c-0.3,0.5-0.7,1-0.9,1.5
		l-2.1-1.1l-1.5,3.5l2.4,0.9c-0.1,0.6-0.3,1.2-0.3,1.9l-3.4,0.1l0.4,3.8l3.2-0.1c0.1,0.6,0.2,1.2,0.4,1.8l-2.6,0.7l1.4,3.8l2.7-1.2
		c0.2,0.4,0.5,0.8,0.8,1.1l-2,2.5l2.6,2.9l2.4-2.5c0.6,0.4,1.2,0.8,1.8,1.1l-1.6,2.7l3.1,1.1l1.4-2.7c0.5,0.1,1,0.2,1.5,0.3l0.6,3
		l3.8-0.1l-0.2-3.1c0.3-0.1,0.6-0.1,0.9-0.2l1.1,3.3l3.4-1.2l-1.4-3.3c0.6-0.4,1.2-0.8,1.8-1.2l2.5,2.3l2.7-3l-2.5-2.1
		c0.3-0.5,0.7-1,0.9-1.5l1.8,1.3l1.8-2.9l-2.3-1.7C44.3,137.9,44.4,137.4,44.5,136.8z M30.8,146.6c-6.1,0-11.1-5.1-11.1-11.4
		c0-6.3,5-11.4,11.1-11.4c6.1,0,11.1,5.1,11.1,11.4C41.9,141.5,37,146.6,30.8,146.6z"/>
</g>
<g>
	<g>
		<path class="st22" d="M62.5,171.8c0,0-1.8-1.8,1.8-7.3c3.5-5.5,7-9.9,7-9.9l-4.2-2.6l-10.3,11.7c0,0-3,2.1-7.1-2.4
			c-4-4.6-7.9-10.4-7.9-10.4l-3.7,2.8l6.9,13.2c0,0,1.3,4.6-3.2,6.2c-4.5,1.6-12.2,5.4-12.2,5.4l1.6,5.5l13.3-5.1
			c0,0,3.4-0.8,3.8,2.6c0.5,3.4,2.7,16.5,2.7,16.5l4.6-0.3l1.4-15.7c0,0,1-3.9,6.1-2.8s14.1,3.9,14.1,3.9l0.5-4.4L62.5,171.8z
			 M53.6,178.3c-3.1,0-5.5-2.5-5.5-5.5c0-3.1,2.5-5.5,5.5-5.5s5.5,2.5,5.5,5.5C59.1,175.8,56.7,178.3,53.6,178.3z"/>
		<ellipse class="st22" cx="53.8" cy="172.6" rx="3.1" ry="3.1"/>
	</g>
	<path class="st22" d="M81.1,175h6.4l-0.2-7.2h-6.2c-0.2-1.6-0.5-3.2-1-4.7l4.9-1.5l-2.4-6.2l-5,1.9c-0.7-1.3-1.6-2.6-2.5-3.8l4.1-3
		l-6.7-5.4l-2.6,3.3c-1-0.7-2-1.4-3-2l2.5-3.9l-6.7-4.1l-2.8,5.3c-0.9-0.2-1.8-0.4-2.7-0.5l-0.4-4.6l-8.2,0.3l0.6,4.5
		c-1.4,0.2-2.7,0.6-4,1l-1.9-3.9l-5.8,3.3l2.2,3.2c-1.4,0.8-2.7,1.8-3.9,2.9l-2.9-3.1l-5,5.1l3.4,2.9l0.1,0.1c-0.7,1-1.3,2-1.9,3
		l-4.3-2.1l-3.1,7l4.9,1.8c-0.3,1.2-0.5,2.5-0.7,3.8l-6.9,0.1l0.8,7.7l6.4-0.1c0.2,1.2,0.4,2.4,0.8,3.5l-5.2,1.5l2.9,7.7l5.4-2.4
		c0.5,0.8,1,1.6,1.6,2.3l-4,5l5.1,5.9l4.9-5c1.2,0.8,2.4,1.6,3.7,2.2l-3.1,5.5l6.3,2.1l2.8-5.5c1,0.2,2,0.4,3,0.5l1.1,6.1l7.7-0.2
		l-0.4-6.2c0.6-0.1,1.2-0.3,1.8-0.4l2.3,6.6l6.9-2.4l-2.9-6.7c1.3-0.7,2.5-1.6,3.7-2.5l5,4.6l5.5-6l-5-4.3c0.7-0.9,1.3-1.9,1.9-3
		l3.6,2.7l3.5-5.9l-4.6-3.4C80.7,177.4,81,176.2,81.1,175z M53.7,194.8c-12.3,0-22.3-10.3-22.3-23c0-12.7,10-23,22.3-23
		c12.3,0,22.3,10.3,22.3,23C76,184.5,66,194.8,53.7,194.8z"/>
</g>
<path class="st23" d="M226.3,70.4v101c0,2.1-1.7,3.7-3.7,3.7H41.3c-2.1,0-3.7-1.7-3.7-3.7v-101c0-2.1,1.7-3.7,3.7-3.7h181.3
	C224.6,66.6,226.3,68.3,226.3,70.4z"/>
<path class="st24" d="M210.2,171H48.9c-3.5,0-6.3-2.8-6.3-6.3V77.1c0-3.5,2.8-6.3,6.3-6.3h161.3c3.5,0,6.3,2.8,6.3,6.3v87.5
	C216.5,168.2,213.7,171,210.2,171z"/>
<g>
	<rect x="50.3" y="82.4" class="st25" width="26.5" height="79.8"/>
	<polygon class="st26" points="54.2,86.1 56.1,93.2 61.4,88.1 	"/>
	<polygon class="st26" points="66.2,86.2 68.2,93.3 73.4,88.3 	"/>
	<line class="st26" x1="53.3" y1="97" x2="74.2" y2="97"/>
	<g>
		<g>
			<path class="st27" d="M60.4,101.3c-0.1-0.3-0.2-0.5-0.3-0.7c-0.1-0.2-0.2-0.3-0.7-0.3h-0.9v4.1c0,0.7,0.1,0.8,0.9,0.8v0.2h-2.5
				v-0.2c0.8-0.1,0.9-0.1,0.9-0.8v-4.1H57c-0.5,0-0.6,0.1-0.8,0.3c-0.1,0.2-0.2,0.4-0.3,0.7h-0.3c0.1-0.5,0.1-1,0.1-1.5H56
				c0.1,0.2,0.2,0.2,0.5,0.2h3.4c0.2,0,0.3,0,0.4-0.2h0.2c0,0.4,0,1,0.1,1.5L60.4,101.3z"/>
		</g>
	</g>
	<line class="st28" x1="67" y1="105.4" x2="72.1" y2="100.2"/>
	<rect x="54.3" y="110.5" class="st29" width="5.8" height="5.8"/>
	<path class="st27" d="M73.5,111l-1.3-1.2l-0.8,1.1l-2.2-0.2l-1.2,1.4H66c0,0-0.2,4.7,0,4.7c0.2,0,4.9,0,4.9,0v-1.2
		c0,0,1.6-0.4,1.6-2.3l-0.1-1.4L73.5,111z M70.6,114.2c-1.2,1.2-3.5,0.4-2.9,0.1c0.6-0.3,3.5-2.9,3.5-2.9l0.9,0.9L70.6,114.2z
		 M71.6,111.2l0.7-0.8l0.7,0.7l-0.8,0.8L71.6,111.2z"/>
	<line class="st28" x1="53.5" y1="119.9" x2="74.2" y2="120"/>
	<polygon class="st29" points="54.4,123.5 54.3,128.7 60.7,128.6 60.5,123.5 	"/>
	<path class="st29" d="M56.2,123.6c0,0,0.9,2.1-0.4,4.7"/>
	<path class="st29" d="M59,123.5c0,0,0.5,4.5-0.9,5.2"/>
	<path class="st29" d="M54.5,124.4c0,0,1.4-0.3,2.9,1c1.2,1,3-0.4,3.2-0.7"/>
	<path class="st29" d="M54.4,126.1c0,0,1.4,0.1,2.5,0.9c1.2,0.8,2.4,0.6,3.6-0.2"/>
	<rect x="66.6" y="123.5" class="st27" width="6.2" height="5.2"/>
	<ellipse class="st28" cx="68.4" cy="136" rx="2.4" ry="2.3"/>
	<path class="st28" d="M69,138.2l2.3,2.2c0,0,0.6,0.6,1.3-0.1s-0.8-1.8-0.8-1.8l-1.4-1.2"/>
	<g>
		<rect x="58.1" y="134.6" class="st29" width="1.2" height="1.2"/>
		<polyline class="st29" points="58.1,135.9 57.1,135.9 57.1,140.9 60.3,140.9 60.3,135.9 59.3,135.9 		"/>
	</g>
	<path class="st29" d="M59.7,138.4c0,0.5-0.5,0.9-1,0.9c-0.6,0-1-0.4-1-0.9c0-0.5,0.5-0.9,1-0.9C59.3,137.5,59.7,137.9,59.7,138.4z"
		/>
	<circle class="st27" cx="56.3" cy="133.7" r="0.2"/>
	<ellipse class="st27" cx="55" cy="134.5" rx="0.2" ry="0.2"/>
	<ellipse class="st27" cx="56" cy="135.3" rx="0.2" ry="0.2"/>
	<ellipse class="st27" cx="57" cy="134.6" rx="0.2" ry="0.2"/>
	<rect x="56.2" y="144.2" class="st27" width="9.1" height="9.1"/>
	<polyline class="st29" points="61.5,152.9 61.5,157.9 64.3,157.9 	"/>
	<line class="st29" x1="68" y1="145.3" x2="65.7" y2="145.3"/>
</g>
<path class="st30" d="M87.7,139.4c0,0,5.8-15.8,9.4-21.4c3.6-5.6,7.1-10.7,14-11.5c6.9-0.8,16.5,17.1,23.2,23.4
	c6.7,6.3,21.2,5.1,35.1-18.8"/>
<path class="st31" d="M216.9,113.8c0,0-9.5-9.4-10.4-9.7c-0.9-0.3-0.8-4.3,1.2-4.4c2-0.1,8.5,5.5,8.8,6.6l0.2-8.2
	c0,0-3.5,0.1-4.7-3.5c-1.2-3.6,3.5-3.3,4.7-1.3v-8.2c0,0-5.8-0.1-4.2-2.4s4-1.3,4-1.3l0.2-6.4l-4.8,1.4c0,0-2.4-3.2-3.3-2.9
	c0,0,2.7-2.4,3.5-2.5l-19.8,0.1c0,0,1,2.4,0.3,3.2c-0.7,0.8-6.6-3-8.1-2.6l0.9-0.7l-23.9-0.1l-3.7-0.1c0,0,0.3,1.4-1.6,1.3
	c-2-0.1-5.4-1-5.4-1h-19.1l-0.8,3.4c0,0,0,1.4,4.4,2.2c4.4,0.8,22.5-1,21.4,3c-1.1,4-10.2-1-14.6-0.8c-4.4,0.2-12.5-0.7-14.3,2.6
	c-1.8,3.3-0.7,6.3-0.1,6.3c0.5,0,4.2-1.2,7.4-1.9c3.2-0.7,15.6-1.8,12.5,0.8c-3.1,2.5-12.2,0.7-17.3,2.3c-5.2,1.6-4.2,3.2-4.2,4.9
	c0,1.8,0.2,2.4,2.9,1c2.6-1.4,8.4-3.1,7.4-0.5c-1.1,2.5-4.9,3.1-6.5,3.8c-1.5,0.8-2.6,1.6-1.5,4.7c1.1,3.1,3.7,7.5,8,6.8
	c4.3-0.7,6.8-6,8-7.7c1.2-1.6,5.7-9.4,5.6-4.7c-0.1,4.7-3.1,7.6-3.7,9.4c-0.7,1.9-3.4,4.3-1.3,5.3c2.1,1,7.8,2.9,9.9,0.8
	c2.1-2.1,7.1-12.9,6.9-19.3c-0.2-6.4,0.5-9,3.3-8.3c2.7,0.7,1.3,5.3,1.3,7.6c0,2.3-0.2,8.1-1.5,10.1c-1.3,2-3.1,5.6-3.5,6.7
	c-0.4,1.1,0,2.3,1.2,2.3c1.2,0,4.6-0.2,5.5-1c0.9-0.8,2.6-0.9,3.4,0.8c0.8,1.6,2.7,0.4,3.6-0.9c0.9-1.3,3.6-4.2,4.3-5
	c0.7-0.9,7.2-3.6,8-6.9c0.8-3.3,4.6-4.4,3.5-0.8c-1.1,3.6-5.6,6.6-7,7.2c-1.4,0.7-7.4,5.5-8.2,6.4c-0.9,0.9-2.1,2.4-0.5,5.6
	c1.5,3.2,2.6,4.3,4.5,3c1.9-1.3,6.4-6,7.1-7.2c0.8-1.2,3.7-5.9,4.9-5.6c1.2,0.3,0,4.7-2.1,5.7c-2.1,1-5.2,5.4-6.9,8.4
	c-1.8,3.1-1.9,5-0.9,6.5c1,1.4,2.7,3.4,3.6,3.6c0.9,0.2,2.2-1.5,2.1-3.8c-0.1-2.3,2.5-7.5,3.7-8.1c1.2-0.7,3.4,0.8,2,3.1
	c-1.4,2.3-3.4,5.5-4.1,6.4c-0.7,0.9-1.5,4.3-1,5.3c0.5,1,1.2,2,1.8,2.9c0.5,0.9,1.8,0.4,2.4-2.3c0.7-2.7,1.9-7,3.1-7.1
	c1.2-0.1,2.4,0,0.9,4.7c-1.5,4.7-0.5,6.8,1.1,7.2c1.6,0.4,7.7,2.5,10.5-1c2.9-3.5,1-8.3-0.1-10.5c-1.1-2.2-2.4-7.2-2.2-10
	c0.2-2.7,3.7-0.9,5.2,3.2c1.4,4.1,2.2,7.8,2.9,9.2c0.7,1.4,1,3.2,3.7,0.9L216.9,113.8z M162.6,74.3c0,0-2.3,1.3-2.9-0.4
	c-0.6-1.6,1.2-2.7,1.2-2.7s3.6-0.2,4.7,0s0.7,1.8,0.3,2.1C165.4,73.6,162.6,74.3,162.6,74.3z M168.1,80.7c-0.5,1.6-2.2,2.7-3.3,2.4
	c-1-0.3-0.9-0.5-0.5-2c0.4-1.4,2.1-3,2.1-3C168.5,77,168.6,79,168.1,80.7z M171.3,78.3c-0.5-1.3-0.2-3.6-0.2-3.6s0.1-0.7,0.5-1.9
	c0.4-1.2,2.4-0.3,2.7,0.9c0.4,1.2,0.3,2.9-0.3,4.2C173.5,79.1,171.8,79.5,171.3,78.3z M177,98.2c-0.7,0.5-3,3.6-3,3.1
	c0-0.5-0.6-3.7-0.8-4.4c-0.2-0.7-0.9-4.1-0.9-4.1c0.9-0.3,3.8-0.2,3.8-0.2S177.7,97.7,177,98.2z M181.7,83.1l-0.8-1.8l3.3-0.3
	l0.7,1.9C183.6,82.5,181.7,83.1,181.7,83.1z M186.6,91.7l-1.3-2.3l2.5-0.3L186.6,91.7z M193.4,81.9l-1.8-3l2.1,0.4L193.4,81.9z"/>
<g>
	<path class="st32" d="M64.6,148.6c0,0-0.7-1.8,0.9-2.4c1.7-0.7,3.6-1.3,3.6-1.3s2.6-0.8,2.9,0.3s-0.7,1.4-1.5,1.4
		c-0.8,0-2.7,0.5-1.7,3.4c0,0-1.4-0.7-1.3,0.2c0,0-0.2,1.5,1.2,1.2c0,0,0.6,0.1-0.2,0.7c-0.9,0.6-1.9,1.4-2.5-0.2
		C65.3,150.3,64.6,148.6,64.6,148.6z"/>
	<path class="st33" d="M73.2,151.8c-0.6-0.1-1.5-0.3-1.3-0.6c0.2-0.3,1-0.7,1.4-0.8c-0.1-0.4-0.2-0.9-0.5-1.3
		c-1-1.4-1.7-2.5-1.7-2.5s-2.1-0.3-2.7,1.1c-0.6,1.4,0.5,2.5,0.5,2.5s-0.9-1-1.5-0.1c-0.6,0.9,0.5,1.4,0.9,1.4c0.3,0,1.5,0-0.7,1.1
		l-0.8,0.2c0,0,0.3,1,0.6,1.2c0.4,0.1,1.1,1.2,3.7,0.2l0.1-0.8c0,0,1.6-0.2,1.8-0.3c0.2-0.1,0-1,0-1S73.1,152,73.2,151.8z"/>
	<path class="st34" d="M73,150.5c0,0-0.9,0.3-1.1,0.8c0,0,0.2,0.5,1.3,0.5C73.2,151.8,73.5,150.9,73,150.5z"/>
	<g>
		<g>
			<path class="st35" d="M74.8,164.8c0.1,0.6,0.2,1.2,0.1,1.5l-4.7,2.8l-4.1,2.1h-3.9c0,0-0.3-13.2,4.8-17.4c0,0,0.5,1.2,4.2,0.4
				l5.2,4.7l-0.3,0.3L74.8,164.8z"/>
		</g>
	</g>
	<polyline class="st36" points="76.3,159.3 73.9,161.3 74.8,164.8 77.1,166.2 81.1,163.7 76.2,159.3 	"/>
	<path class="st14" d="M62.4,171.4l12.7-0.4c0.2,0,0.3,0.1,0.3,0.3c0.1,2.3,0.7,15.6,0.8,17.6c0.1,2.1,0.3,20.8-0.4,27.6
		c0,0.2-0.2,0.3-0.3,0.3l-3,0.1c-0.2,0-0.3-0.1-0.3-0.3L68,201.1c0-0.1-0.2-0.1-0.2,0c-0.7,2.3-3.9,13.1-4.6,15.7
		c0,0.2-0.2,0.3-0.4,0.3l-3-0.4c-0.2,0-0.3-0.2-0.3-0.4l1.3-31.7c0,0,0.4-10,1.2-12.9C62.1,171.5,62.2,171.4,62.4,171.4z"/>
	<path class="st37" d="M59.9,219.7c0,0-0.4,0.7,0.1,0.8s5.9,0.1,5.9,0.1s-0.3-0.5-0.5-0.6C65,220,59.9,219.7,59.9,219.7z"/>
	<path class="st38" d="M59.7,219.6l0-0.9l0.7-0.8c0,0,1.4-0.1,1.7,0.1s3.4,2,3.6,2.1c0.2,0.1-3.8,0.1-4.7,0S59.8,219.8,59.7,219.6z"
		/>
	<path class="st39" d="M62,216.5l0,1.4l-0.6,0.4l-0.5,0l-0.6-0.4l0.1-1.6L62,216.5z"/>
	<path class="st37" d="M72.9,219.5c0,0-0.4,0.7,0.1,0.8c0.4,0.2,5.9,0.1,5.9,0.1s-0.3-0.5-0.5-0.6C78,219.8,72.9,219.5,72.9,219.5z"
		/>
	<path class="st38" d="M72.6,219.4l0-0.9l0.7-0.8c0,0,1.4-0.1,1.7,0.1c0.3,0.2,3.4,2,3.6,2.1c0.2,0.1-3.8,0.1-4.7,0
		C73.2,219.8,72.8,219.5,72.6,219.4z"/>
	<path class="st39" d="M75,216.3l0,1.4l-0.6,0.4l-0.5,0l-0.6-0.4l0.1-1.6L75,216.3z"/>
	<path class="st40" d="M49.1,182.7c0,0-0.9-1.6-1.4,0.8s1.6,4.6,2.8,5.3c1.3,0.8,1.9,0.2,1-1.6C50.7,185.5,49.1,182.7,49.1,182.7z"
		/>
	<path class="st41" d="M49.5,181.4L49.5,181.4c0,0-0.9,0.2-0.8,2c0.1,1.8,1.9,5,4.2,5.1S74,178.5,74,178.5l5.8-3.3l8.8-4.8
		c0,0,1.6-0.6,3.6-2.6l26.8-14.7c0,0,0.7,0.5,0.9-0.5l17.8-10.2c0,0,0.1-2.8-3.4-6.5l-18.1,9.4c0,0-0.7-0.3-0.9,0.5l-27.4,14.7
		c0,0-1.4-1-4.4,1.4l0.2,0.3c0,0-11.1,5.3-13.5,7C67.8,170.9,51.3,179.4,49.5,181.4z"/>
	<path class="st42" d="M51.3,182.5c0,0-1.7,0.9-1,2.2s0.7,2.2,2.1,1.9c1.5-0.7,6-3.2,6-3.2s2.9-1.6,3.1-1.6s1.8-2,1.8-2
		s0.4-0.6,1.7-1.2c1.3-0.6,6.6-3.5,6.6-3.5l4.3-2.6c0,0,0.1,0,0.8,0s1.5-0.8,2.1-1.4s1.5-1.2,1.5-1.2s0.5-1.2-0.9-0.6
		c-1.5,0.6-3.7,1.2-3.9,1.2s-0.1,1-0.1,1l-8.1,4l-4.7,2.2c0,0-1.7,0.4-2.2,0.3s-3,1.3-4.3,1.9S51.3,182.5,51.3,182.5z"/>
	<path class="st42" d="M83.6,162c0,0,5,8.9,4.9,8.8c-0.1,0,3.6-1.7,3.4-2.9s-4-7.4-4-7.4S86.4,159.8,83.6,162z"/>
	<path class="st42" d="M115.3,145.9l3.9,7.3c0,0,1.3,0.3,0.5-1.2c-0.8-1.5-3.5-6.6-3.5-6.6S115.6,145.1,115.3,145.9z"/>
	<path class="st42" d="M134.3,136c0,0,0.6-0.3,2.1,0.4l5.1-3.5c0,0,5.1,0.2,7.4-0.9l-3.7,2.4l3.9-2.2c0,0-3.3,3.8-4.6,6.1
		c0,0-5.4,1.9-5.9,2.3c0,0-0.1,1.6-0.9,1.9C137.7,142.5,135.5,137,134.3,136z"/>
	<path class="st43" d="M64.2,162.8c0,0,6.6-0.1,5.9,1.2s-1,3.9-0.8,4.3c0.2,0.4,3.8,6,4.8,6.6s0,0,0,0s0.7-0.5,1.4,0
		c0.7,0.6,1.2,0.7,1.3,0.8c0.1,0.1,0.2,0.5-0.7,0.5s1.5,1.5,1.5,1.5s0,0.5-0.6,0.3c0,0,0.5,1-0.5,0.5c0,0,0,0.7-0.5,0.6
		c0,0,0,0.8-1.1-0.2c-1.1-1-1.9-1.9-1.9-1.9s-0.1-0.8,0-1s-6.1-4.6-6.1-4.6s-2.7-1.9-2.9-4.4C63.9,164.5,64.2,162.7,64.2,162.8"/>
</g>
<g>
	<path class="st11" d="M177.9,205.1l0.1,1.2l3,0.4c0,0,0.3,1.1-0.9,1.2c-1.2,0.1-3.2-0.4-3.2-0.4s-0.8-0.4-0.8-0.5s0-1.8,0-1.8
		L177.9,205.1z"/>
	<path class="st11" d="M175.1,206.2l0,1.5c0,0.1,0.1,0.2,0.1,0.2l2.8,0.5c0,0,0.5,0.4-0.7,1.1c-1,0.6-3.5-0.2-3.5-0.2
		s-0.9-0.5-0.9-0.7c0-0.2,0-2.1,0-2.1L175.1,206.2z"/>
	<path class="st44" d="M180.9,206.7c0,0,2.5,0.4,2.2,1.1c-0.2,0.7-3.1,0.8-3.1,0.8l-1.9-0.1c0,0,3.1,0.7,1.5,1.4c0,0-4.1,0.5-5,0.7
		c-1,0.2-1.8-0.2-1.8-0.6s-0.1-1.1,0.1-1.5c0,0,0.7,0.9,1.7,0.9c0.9,0,2.7,0,2.7,0s0.4,0,0.8-0.7c0,0,0.3-0.6-0.5-0.4
		c-0.9-0.1-1.9-0.1-2-0.8s0.1-0.6,0.3-0.5c0.2,0.1,0.5,0.5,1.3,0.6c1,0.2,2.6,0.4,3.1,0.2C180.5,207.8,181.1,207.6,180.9,206.7z"/>
	<path class="st45" d="M133.6,167.6c0,0-0.2-3.6,3.8-2.4c0,0,0.9,0.9,2.9-1.2l2.7-0.1c0,0,0.8,0.5,2.6-0.2c1.8-1,1.2-1.5,4.4-1.5
		s7,2.9,5.3,7.6c-0.2,0.5-0.1,0.2-0.1,0.2l-0.5-4.2c0,0,0.1-1.8-2.2,0.5l-1.8,2c0,0-0.8-0.7-0.9,0.1s-0.2,2,0.4,1.6
		c0.7-0.3-0.3,2.7-0.8,3.7c0,0-1.1-1-3-0.5c0,0-1.2,1.2-2.3,0.4c0,0-1.4-2.2-3.2-1.1c0,0-0.9,0.7-1.6-1s-2.1-0.5-2.1-0.5
		s-1-1-0.9-1.5c0.1-0.5-2.1-0.4-2.1-0.4S133.7,168.7,133.6,167.6z"/>
	<path class="st46" d="M160.1,188c0,0,8.7,0.4,12.8-0.4c4.1-0.8,4.8,7.7,4.8,7.7s0.7,3.9,0.5,9.7l-2.4,0.2v0.9l-3,0.5l-5-10.9
		c0,0-1.6,1.3-8.2,2.5c-6.6,1.2-7.7-3.3-8-4c-0.3-0.8-0.3-2.5-0.3-2.5l8.7-3.6"/>
	<path class="st47" d="M149.4,174.1c0,0-3.8,0.5-4.7,7.2c-0.9,6.6,4.2,9.4,4.2,9.4s2,1.3,8.4,0.9v-2.4l3-1.2l-0.2-1.7
		c0,0,4.5,0.6,8.9-0.2l-0.1-2.1l-7.8-1.7c0,0-2.9-5.6-3.9-7c-1-1.4-3.4-2-3.4-2s1,2.8-1.4,3C150.7,176.4,149.5,174.8,149.4,174.1z"
		/>
	<path class="st48" d="M170.6,179.2c0,0,0.1-2.6,1-2.6c1,0,0.7,0.8,0.7,1.8c0,1-0.5,6.7-0.5,6.7l-0.3,3.9c0,0,0,0.5-0.9,0.5
		c-0.9,0-5.3,0.7-5.3,0.7l-4.3,0.1c0,0,1.3-0.1,1.3-0.5c0-0.4-0.4-0.3-0.9-0.3s-1.8,0-1.8,0s0.9-0.2,0.9-0.5l9.5-0.9L170.6,179.2z"
		/>
	<path class="st49" d="M147.2,175.2c0,0-4.6-1.2-7.1,0.8s-6.5,8.7-5.8,15.9c0.8,7.2,3.5,14.2,5.8,15.9c2.3,1.8,4.7,3.2,14.4,2.9
		c9.7-0.3,13.6-0.3,17.2-6.6l-3.8-8.6l-2.1,1.2c0,0-5.5,2.3-11,1c-5.4-1.3-3.4-6.4-3.4-6.4s-8.7-1.5-6.3-12.1
		C145,179.1,145,177.1,147.2,175.2z"/>
	<path class="st50" d="M145,179.1c0,0-0.8,3.4-0.3,5.2c0.5,1.8,0.7,4,4.4,6.3c0,0,1.5,0.5,2.2,0.7c0,0-0.2,2.2,0.4,3.4
		c0.7,1.2,1.4,3.3,5,3.3s8.1-1.2,8.9-1.4c0,0-2.5,2.4-3.9,2.5c-1.4,0.1-5.5,0.8-10.6-3.1c-5.1-4-6.5-7.6-7.3-9.1
		C143.2,185.3,141.1,179.5,145,179.1z"/>
	<path class="st9" d="M155.3,169.9c0,0,0.1-5.7-1.3-4.6c-1.4,1.1-3.1,2.9-3.1,3.1c0,0.2-0.5-1-1,0.1c-0.4,1.1,0.2,1.9,0.5,1.7
		c0.3-0.3,0.5,1.3-0.8,3.7l-0.1,1c0,0,1.6,1.6,2.7,1.6c1,0,1.6-1,1.6-1.9c0-0.9-0.6-1.7-0.6-1.7s1.6-0.2,1.8-0.6
		S155.3,169.9,155.3,169.9z"/>
</g>
<g>
	<path class="st51" d="M70.5,50.1l77.9-2.8l0.2,6.1L57,54.9C57,54.9,60,52.2,70.5,50.1z"/>
	<path class="st52" d="M174.2,43.4c0,0,0.2,12.8,0.2,12.5c0-0.2-25.7-2.6-25.7-2.6l-0.2-6.1L174.2,43.4z"/>
	<path class="st53" d="M195.7,40.9c0,0.3-0.1,0.7-0.1,1c0,0.4-0.9,0.1-0.9,0.1c-0.1,0.4-0.8,0.1-0.8,0.1s0.1-0.4-0.1-0.2
		c-0.2,0.2-0.6,0.1-0.6,0.1l-0.1-0.4c0,0-0.2,0.1-0.4,0c-0.2,0-0.1-1.1-0.1-1.1l0-0.1c-3.8-0.8-7.2-1.9-9.5-1.9
		c-6,0-9.2,5.3-9.2,5.3l0.3,11.9c6,4.4,11.2,3.6,11.2,3.6c19.7-1.5,19.9-19.4,19.9-19.4C202.4,41.2,199,41.3,195.7,40.9z"/>
</g>
<g>
	<path class="st54" d="M192.7,73c0,0-2.2-1.9-2.5-14.9l5.6-2.7l3.1,17.1L192.7,73z"/>
	<path class="st55" d="M193.9,82.1c0,0,5.4,0.1,9.2-1.4c0,0,4.5,5.2,4.5,7.1s0,4.7-0.3,6.3c-0.3,1.6-1.4,9.8-1.4,9.9
		c0,0.1-0.5,3.5-0.5,3.5s3.5,4.9,4.4,12.4c0,0,0.4,0.3-3.8,1.7c0,0-6-8-7.7-16.6l-2.3,4c0,0,0,7-0.2,8.2c-0.2,1.2-1,4.2-1.1,4.8
		s-3.5,0.3-4.5,0c0,0-0.8-5.9-0.8-10.4s0.6-7.2,1-9.1s2.8-14,3.3-16C193.9,84.9,194.4,83.1,193.9,82.1z"/>
	<path class="st56" d="M190.1,122.2c0,0,1.6,0.5,4.3,0.2c0,0-0.5,2.4-0.7,4.1c0,0-0.1,1.8-0.2,4l-3.6,0.7l-2.3-0.3v-0.7
		c0,0,0.8-0.7,3.2-0.8C190.9,129.4,190.3,122.7,190.1,122.2z"/>
	<path class="st57" d="M187.9,130.1c0,0-0.1,1,1.9,0.9c1.9-0.3,3.7-1.3,3.7-1.3s0.2,1.7-0.1,2c-0.3,0.3-2.9,0.4-3.7,0.4
		s-3.2,0.1-3.9-0.6S187.9,130.1,187.9,130.1z"/>
	<path class="st58" d="M212.5,128.3c0,0-2.8,1.6-3.8,2.1c-1,0.4-1.3,0.7-2.6,1s-0.6-0.9-0.6-0.9s1-1.3,1.4-1.6
		c0.4-0.2-0.1,1.5,1.7,0.3c1.8-1.2,2.9-2.3,2.9-2.9C211.5,126.3,212.4,127.2,212.5,128.3z"/>
	<path class="st56" d="M205.9,121.5l3.6-1.3c0,0,0.6,4.1,1.2,5.1s0.9,1.6,0.9,1.6s-2.8,2.9-3.5,2.8c0,0-0.9,0.2-1.2-0.3
		c-0.3-0.5,2.9-2.2,1.9-3.1c-1-0.9-2.9-3.3-3.1-4.8"/>
	<path class="st54" d="M195.3,67.4c0,0,4.3,0.7,5.7,1.2c1.4,0.5,3.2,0.5,4.7,3c1.5,2.5,3.6,6,3.6,6s2.7,5.1,0.1,6.6
		c-2.7,1.5-8.3,3.1-10,2.9c0,0,0.7-1.4,0-1.9c-0.7-0.5,5.8-3.5,4.7-5s-1.9-2.4-1.9-2.4l0.7,2.8c0,0-3.1,1.4-9.1,1.3l-0.1-3.3
		c0,0-1.9-0.8-2.1-2.8c-0.2-2,0.8-6.2,1.6-7.7C193.7,67.6,194,67.4,195.3,67.4z"/>
	<path class="st59" d="M199,57c1.4-0.1,5.6,2.5,7.8-0.1c2.2-2.5,1.9-8,8.6-8c6.7,0,7.1,5.4,7.1,7.1c0,1.8-1.5,3-3.1,3.1
		c-1.5,0.2-5.1,1.1-7.3,4.3c-2.2,3.2-4.2,6-7.6,6.4c0,0-4.9-2.6-9.5-2.5c0,0-1.3-1.9-1.3-4.1S194.9,57.4,199,57z"/>
	<path class="st60" d="M195.9,61.7c0,0,1-2.8,1.6-1.9s0.8,1.2,1.9,3.3c0,0,0.2,1,0.4,0.7c0.2-0.3,0.8-0.6,0.7,0.4
		c-0.1,0.9-0.3,1.1-1,1.1c-0.7,0,0-0.1,0-0.1s-0.2,0.8-0.3,1c0,0,0.5,1.4,0.9,2c0.4,0.5-1.3,2.5-2.3,2.3c-0.9-0.1-1.9-0.3-1.9-1.8
		c0,0,0.1-1.4,0.3-2.2c0,0-1.2,0.1-1.5-0.8C194.6,64.9,195.9,61.7,195.9,61.7z"/>
</g>
</svg>
