<svg id="Layer_1" data-name="Layer 1" xmlns="http://www.w3.org/2000/svg" viewBox="0 0 532.58 497.37"><defs><style>.cls-1{fill:#59853b;}.cls-2{fill:#6a9b40;}.cls-3{fill:#ef5756;}.cls-4{fill:#e7a2a3;}.cls-5{fill:#959acd;}.cls-6{fill:#666db3;}.cls-7{fill:#a1a5d3;}.cls-8{fill:#935c5a;}.cls-9{fill:#97ca3d;}.cls-10{fill:#61913f;}.cls-11{fill:#395829;}.cls-12{fill:#4b7135;}.cls-13{fill:#d5d2ea;}.cls-14{fill:#7a7cbb;}.cls-15{fill:#a9b1da;}.cls-16{fill:#423c4a;}.cls-17{fill:#f8b4b6;}.cls-18{fill:#302e34;}.cls-19{fill:#fef3f4;}.cls-20,.cls-21,.cls-22,.cls-23,.cls-25,.cls-27,.cls-34,.cls-37,.cls-60,.cls-62,.cls-70,.cls-90{fill:none;stroke-miterlimit:10;}.cls-20,.cls-21{stroke:#fff;}.cls-20,.cls-23,.cls-62{stroke-width:3px;}.cls-21{stroke-width:8px;}.cls-22{stroke:#6166af;stroke-width:4px;}.cls-23{stroke:#efe3f0;}.cls-24{fill:#f7a4a8;}.cls-25{stroke:#c6c1e0;}.cls-26{fill:#6166af;}.cls-27{stroke:#626ab0;}.cls-28{fill:#ccc6e3;}.cls-29{fill:#616272;}.cls-30{fill:#858dc5;}.cls-31{fill:#fff;}.cls-32{fill:#dcd6ea;}.cls-33{fill:#5a5faa;}.cls-34{stroke:#959acc;}.cls-35{fill:#5052a3;}.cls-36{fill:#908dc4;}.cls-37{stroke:#5a5faa;}.cls-38{fill:#f8dbdd;}.cls-39{fill:#7d62ab;}.cls-40{fill:#f7abaf;}.cls-41{fill:#ea625f;}.cls-42{fill:#cb8e92;opacity:0.38;}.cls-43{fill:#19479b;}.cls-44{fill:#e71b40;}.cls-45{fill:#d96359;}.cls-46{fill:#8995b1;}.cls-47{fill:#face46;}.cls-48{fill:#ca3937;}.cls-49{fill:#309e48;}.cls-50{fill:#f0609e;}.cls-51{fill:#eb736d;}.cls-52{fill:#c45a63;}.cls-53{fill:#f9cbcc;}.cls-54{fill:#74a741;}.cls-55{fill:#84ba41;}.cls-56{fill:#aace61;}.cls-57{fill:#a5cf58;}.cls-58{fill:#c3bbdd;}.cls-59{fill:#5968b0;}.cls-60{stroke:#eae6f3;stroke-width:5px;}.cls-61{fill:#6473b7;}.cls-62{stroke:#e7eaf6;}.cls-63{fill:#d5d6ec;opacity:0.49;}.cls-64{fill:#494951;}.cls-65{fill:#33323a;}.cls-66{fill:#65656d;}.cls-67{fill:#b6b9de;}.cls-68{fill:#75757e;}.cls-69{fill:#54515a;}.cls-70{stroke:#d96359;}.cls-71{fill:#d14f4b;}.cls-72{fill:#2c2c33;}.cls-73{fill:#fcdd86;}.cls-74{fill:#e3a824;}.cls-75{fill:#e7e2f1;}.cls-76{fill:#0b492a;}.cls-77{fill:#adadad;}.cls-78{fill:#ececec;}.cls-79{fill:#b3aeae;}.cls-80{fill:#c1bbbd;}.cls-81{fill:#59575b;}.cls-82{fill:#392c15;}.cls-83{fill:#45753d;}.cls-84{fill:#153f21;}.cls-85{fill:#2c5d2e;}.cls-86{fill:#427d3b;}.cls-87{fill:#286131;}.cls-88{fill:#eff0ef;}.cls-89{fill:#3c3b46;}.cls-90{stroke:#b6ce8c;}</style></defs><title>person sitting on th table031128</title><path class="cls-1" d="M466.36,292.07s-2.53,13.6-.92,18.45,6.46,6.23,9,.23,4.15-18.45,2.53-22.84S470.29,281.69,466.36,292.07Z" transform="translate(-11.05 -11.05)"/><path class="cls-2" d="M489.66,283.76s-7.84,11.07-3.23,18.46,9.69-5.54,12-11.54S506.73,254.7,489.66,283.76Z" transform="translate(-11.05 -11.05)"/><path class="cls-1" d="M441.22,235.33s-5.07-4.85-6.45-9.46S432,217.34,433.61,215s6-2.31,7.38,3.23a160.8,160.8,0,0,1,2.54,15.91Z" transform="translate(-11.05 -11.05)"/><path class="cls-3" d="M383.68,297.39l160,92.77-205,118.26-83.07-48.36s-3.76-.88-6.85-9.67-11.49-3.52-14.58-3.52-7.29-2.86-12.59-5.94S140,394.33,140,394.33l77.84-52.53.89-13.78,123.72-69.17Z" transform="translate(-11.05 -11.05)"/><path class="cls-4" d="M533,391.36,341.57,502l-79.33-44.6s-4.17-4.4-5.06-9.1-8.93-6.74-15.48-5.57S225.33,436,225.33,436l-78-43.42,68.46-47,1.49-16.43,120-63.37,43.46,35.5Z" transform="translate(-11.05 -11.05)"/><path class="cls-5" d="M443.65,335.2,458,369.8a26.86,26.86,0,0,0,11.76,1.61c7.15-.46,12.92-1.61,18.45-6.69,0,0,6.46-30.21,6.69-34.6S443.65,335.2,443.65,335.2Z" transform="translate(-11.05 -11.05)"/><path class="cls-6" d="M437,315.36l6.69,19.84S447.57,341,469,341s30-13.83,30-13.83l-.23-13.61Z" transform="translate(-11.05 -11.05)"/><ellipse class="cls-7" cx="456.23" cy="300.63" rx="32.41" ry="17.53"/><ellipse class="cls-8" cx="456.46" cy="301.09" rx="25.72" ry="12.69"/><path class="cls-9" d="M474.09,196.81s-3.69,35.75-4.38,49.13.23,42.67.92,45.67,3,17.52,5.08,18,7.38-15,7.84-20.53,1.61-40.37,1.61-48-1.38-40.36-2.77-45.67S477.32,179.05,474.09,196.81Z" transform="translate(-11.05 -11.05)"/><path class="cls-1" d="M478.59,149.06s-6.69,6.23-9.46,21.91a88,88,0,0,0-.23,28.84s7.84,1.84,11.53-18.69S484.36,145.83,478.59,149.06Z" transform="translate(-11.05 -11.05)"/><path class="cls-9" d="M465.9,151.6a157.3,157.3,0,0,0,5.54-28.14c1.38-14.76-2.77-17.76-8.77-9.46,0,0,2.31-27.44-1.84-31.6s-8.54,12.69-8.3,27.91,2.07,19.15,1.15,23.3a69.37,69.37,0,0,0-1.15,21.68c.92,10.38,5.53,11.76,5.53,11.76Z" transform="translate(-11.05 -11.05)"/><path class="cls-10" d="M463.48,138.45S458.64,141,457,174.2s-1.38,70.35-1.38,70.35L457.71,266l6,33.91,4.38,4.61,4.16-61.12V180.2C472.25,169.59,468.56,132,463.48,138.45Z" transform="translate(-11.05 -11.05)"/><path class="cls-9" d="M448,175.67s-7.15-12.45-9-4.38,5.08,21,5.08,21Z" transform="translate(-11.05 -11.05)"/><path class="cls-2" d="M446.64,162.67s-3.92,11.07-2.3,33.91,2.3,28.83,4.61,31.83,7.84,8.3,8.07-4.62,1.62-42-4.15-54S446.64,162.67,446.64,162.67Z" transform="translate(-11.05 -11.05)"/><path class="cls-11" d="M443.88,274.08s-3-18.69-5.31-23.76-7.38-12.92-9-5.54,2.76,32.52,5.07,39,11.07,26.3,14.07,28.83,10.38,2.54,7.38-7.61S444.8,278.46,443.88,274.08Z" transform="translate(-11.05 -11.05)"/><path class="cls-12" d="M452.87,249.4s-.92,33.9,0,40.13,2.77,23.76,6.92,28.37,9.69-2.08,7.38-33.21-2.3-31.6-4.61-36S455,241.55,452.87,249.4Z" transform="translate(-11.05 -11.05)"/><path class="cls-2" d="M452.18,215s-12,2.54-12.23,14.3,1.39,26.75,2.31,40.13,9.23,32.52,11.3,36.21,6,.93,6,.93S459.1,233.25,452.18,215Z" transform="translate(-11.05 -11.05)"/><path class="cls-2" d="M491.16,207s-5.31,7.61-4.15,13.14c0,0-3.46,5.31-3.69,10.84s-5.31,74.73-3.46,79.81,8.3,2.77,10.84-5.77,4.84-51,4.84-51,9.23-8.54,10.15-21.68-9.92-.69-10.84,2.07-.92-13.14-.92-13.14,5.07-8.31,3.46-12.69S492.08,206,491.16,207Z" transform="translate(-11.05 -11.05)"/><path class="cls-13" d="M220.5,129.16l221.77,128.7L311.47,335a3.38,3.38,0,0,1-3.42,0L163.41,250.94,76.92,192.47,216,125Z" transform="translate(-11.05 -11.05)"/><path class="cls-14" d="M204.69,281l102.39,59.1a4.21,4.21,0,0,0,4.19,0l130.65-75-.58-8.19L309.55,334.5a1.19,1.19,0,0,1-1.21,0L175.63,257.7l-3.58,6.46Z" transform="translate(-11.05 -11.05)"/><path class="cls-15" d="M241.94,78.48s-8.07-2.53-8.07,4.62v80.26s.46,4.15,6.46,6.69,94.56,56.51,94.56,56.51l-1.15-91.8s.23-3.69-6.23-6.46S241.94,78.48,241.94,78.48Z" transform="translate(-11.05 -11.05)"/><path class="cls-16" d="M328.89,221l-91.3-54.57a2.19,2.19,0,0,1-1.07-1.88V81.22a2.19,2.19,0,0,1,3.29-1.89l90.66,52.58a2.21,2.21,0,0,1,1.09,1.88l.65,85.27A2.2,2.2,0,0,1,328.89,221Z" transform="translate(-11.05 -11.05)"/><path class="cls-15" d="M338.81,218.56h-.92a1.48,1.48,0,0,0-.77.18,1.83,1.83,0,0,0-1.06,1,1.58,1.58,0,0,0-.17.77l.07.54a2,2,0,0,0,.52.88l.4.31a2,2,0,0,0,1,.27h.92a1.43,1.43,0,0,0,.77-.17,1.53,1.53,0,0,0,.65-.41,1.56,1.56,0,0,0,.41-.64,1.49,1.49,0,0,0,.17-.78l-.07-.53a1.91,1.91,0,0,0-.51-.88l-.41-.31a2.07,2.07,0,0,0-1-.28Z" transform="translate(-11.05 -11.05)"/><path class="cls-17" d="M94.55,156.21s-.69,10.38-7.15,16.84c0,0-1.84,6.23,0,8.07s15,15.46,33.45,10.15c0,0-8.77-6.46-6-21Z" transform="translate(-11.05 -11.05)"/><path class="cls-17" d="M146,131s3,10.38-3.46,24a96.25,96.25,0,0,1-15.91,23.3s-12.23.23-28.14-20.07l15.91-29.52,21.91-5.3Z" transform="translate(-11.05 -11.05)"/><path class="cls-18" d="M77.49,123s-.7-9.69,3.92-13.15,9-3.46,9-9.22,10.61-4.16,14.53-5.54,10.15-1.61,13.84-1.61,34.6,7.84,34.83,25.6-12.68,12.68-14.53,9.69-8.07-1.39-8.3,4.15-.69,9-8.08,10.15c0,0-4.15,0-4.15,6s-5.07,4.85-6,4.85-3.46-3.69-5.77-1.62-3.69,6.92-9.69,6.92S83,153.45,83,150.45,78,127.61,77.49,123Z" transform="translate(-11.05 -11.05)"/><path class="cls-19" d="M126.22,146a3.57,3.57,0,0,0,0,.46c.11.41.58.58,1,.69.09.13-.14.26-.26.17a.51.51,0,0,1-.1-.42l.13-1.67a2.14,2.14,0,0,0-.17-1.28,1.84,1.84,0,0,0-.53-.51,4.89,4.89,0,0,0-3.8-.75,8.87,8.87,0,0,1,1.76,1.7C124.82,144.9,126.07,145.16,126.22,146Z" transform="translate(-11.05 -11.05)"/><path class="cls-19" d="M120.19,150.31a2.12,2.12,0,0,0,1.62,1.59c.35,0,.7,0,1,0a11.77,11.77,0,0,1,1.59.6,4.09,4.09,0,0,0,1.21.06,1.33,1.33,0,0,1-.31.6,4.62,4.62,0,0,1-3.84,1.71,6,6,0,0,1-3.35-1.5,1.18,1.18,0,0,1-.39-.47,1.23,1.23,0,0,1,0-.54,28.54,28.54,0,0,1,.71-3.57,1,1,0,0,1,.34-.61,2.85,2.85,0,0,1,1.3-.16A9.6,9.6,0,0,0,120.19,150.31Z" transform="translate(-11.05 -11.05)"/><line class="cls-20" x1="115.96" y1="130.46" x2="140.18" y2="137.38"/><path class="cls-20" d="M145.62,143.07s6.74.17,6.31,4.32-.61,8.13-3.89,8.48-5.88-3.55-5.88-3.55" transform="translate(-11.05 -11.05)"/><path class="cls-21" d="M86.37,169.53a12.63,12.63,0,0,0-3.64,11.07c1.21,6.75,19.21,14.19,21.45,14.71s13.84,1.73,21.11-1" transform="translate(-11.05 -11.05)"/><path class="cls-22" d="M216.4,199.27s4,3.2-2.26,5.29-8.92-1.85-14.64,2.34" transform="translate(-11.05 -11.05)"/><path class="cls-23" d="M210.82,195.57s7.91,1,5.27,4.08c-2.05,2.42-7.27,2.82-9.51,2.87a5,5,0,0,1-1.59-.18,6.25,6.25,0,0,0-7.22,2.83" transform="translate(-11.05 -11.05)"/><path class="cls-24" d="M182,216.59s3.63-4.1,13.09-4.33,11.65-.46,16.84-4.15-4.62-2-7.73-.69-4.84-.93-4.84-4.15,3.46-5.66,7.49-3.35,8.31-1.27,8.31-1.27-.35-2-2.66-1.27c0,0,.46-2.3,0-3.22s-3.8-1.85-5.3-1.39c0,0,2-1.61-.92-2.65s-3.58-.23-3.58-.23,0-1.5-3.81-2c0,0-1.84-2.19-3-.81s-8.31,9.11-11.65,11-8.65,5.53-8.65,5.53Z" transform="translate(-11.05 -11.05)"/><path class="cls-25" d="M227.41,323.67l15.45-10.15s2.77,1.61,3,7.84,7.15,31.83,9.23,34.83" transform="translate(-11.05 -11.05)"/><path class="cls-26" d="M85.67,168.67s-21.62-8.31-27.15-.35-6.92,7.79-11.94,20.59,1.56,18.85,1.56,18.85l59,35.47,16.08,60.37,5.19,50,11.59-5s12.11.34,16.26-.87S176,337.5,176,337.5s.18-36.15-1-36.84,3.8,6.4,15.39-3.29,51.73-49.13,51.73-49.13,1.73-5.53-3.46-10.72-18.69,3.28-18.69,3.28l-36,25.61-21.1-40.48,19.2-9.34s4.15-6.4.35-10.9-11.94-3.81-11.94-3.81l-18.86,6.92S139,199.46,129.09,196s-29.75-.86-29.75-.86L83.43,180.78Z" transform="translate(-11.05 -11.05)"/><path class="cls-27" d="M174.94,300.66S150.83,276.61,128.23,233" transform="translate(-11.05 -11.05)"/><path class="cls-28" d="M165.83,299.45l40.36-18,60,34.82,16.38,74.51-18.69,9.91s-17.07-32.75-23.75-45-12.69-32.06-12.69-32.06-37.37,27.21-66.2,36.67c-5.53,2.31-17.07-1.38-22.14-4.38s1.85-18.22,1.85-18.22l2.76-23.53,17.07-9.69Z" transform="translate(-11.05 -11.05)"/><path class="cls-29" d="M172.28,407.51s-2.07.8-1.84,5.76,2.42,9.23,8.65,11.19,8.53-.35,11.53-2.54,8.42-3.46,13.61-5.07,23.53-7.5,23.3-20Z" transform="translate(-11.05 -11.05)"/><path class="cls-30" d="M180,393.09s-3.34,4.61-6,8.65-4.15,6.69-3.11,7.73,9.8,8.76,11,8.76,7.15-.8,9.68-2.88,8.42-1.73,11.19-2,21.45-10.38,23.53-13.72,1.84-4.73-.58-7.16-9.23-6.22-12-4.38-11.42,3.92-14.42,4.5S180,393.09,180,393.09Z" transform="translate(-11.05 -11.05)"/><path class="cls-31" d="M183,388.82s-3.23,2.77-3.23,8.54,10.61,6.8,10.61,6.8,9.57-1.38,9.57-7.72-.11-9.23-.11-9.23Z" transform="translate(-11.05 -11.05)"/><path class="cls-24" d="M182.09,377,182,390.09s1.73,4.15,8.88,4.15,10.5-6.57,10.5-6.57V377.29Z" transform="translate(-11.05 -11.05)"/><path class="cls-32" d="M207.8,349.38s2.31,3.35-1,14.65a111,111,0,0,1-6.35,17.18l-16.95.69a51.69,51.69,0,0,1-1.15-17.18C183.24,354.92,207.8,349.38,207.8,349.38Z" transform="translate(-11.05 -11.05)"/><path class="cls-33" d="M290.51,197.58s1.84,14.06-2.24,17.35a125.5,125.5,0,0,1-10.77,7.36l-16.16-9.46.66-2.89,13.4-9.07L274,191.15Z" transform="translate(-11.05 -11.05)"/><path class="cls-15" d="M288.27,196.8s1.84,14.45-1.83,16.81-9.2,5.79-9.2,5.79L262,209.94l10.9-8.81-.26-13.4Z" transform="translate(-11.05 -11.05)"/><path class="cls-34" d="M327,285" transform="translate(-11.05 -11.05)"/><path class="cls-35" d="M180,393.09s2.15,9.73,9.5,9.56,11.19-8.27,11.19-8.27,5,8.94-4.35,11.36S173.1,405.57,180,393.09Z" transform="translate(-11.05 -11.05)"/><rect class="cls-31" x="201.17" y="395.93" width="13.44" height="4.01" transform="translate(312.09 -47.03) rotate(42.46)"/><rect class="cls-31" x="207.09" y="394.09" width="13.44" height="4.01" transform="translate(312.4 -51.51) rotate(42.46)"/><polygon class="cls-36" points="219.59 188.11 291.89 230.67 254.53 253.04 180.6 210.49 219.59 188.11"/><polyline class="cls-37" points="180.84 209.75 180.92 212.72 254.53 254.93 294.08 231.04 292.13 229.93"/><polygon class="cls-38" points="213.07 193.84 213.19 193.95 216.12 196.35 213.15 198.44 210.26 195.93 213.07 193.84"/><polygon class="cls-38" points="208.27 196.73 208.39 196.83 211.31 199.24 208.34 201.32 205.45 198.81 208.27 196.73"/><polygon class="cls-38" points="202.21 200.25 202.33 200.35 205.26 202.75 202.29 204.84 199.4 202.33 202.21 200.25"/><polygon class="cls-38" points="190.25 206.64 190.38 206.75 193.46 209.37 190.34 211.64 187.29 208.91 190.25 206.64"/><polygon class="cls-33" points="200.19 212.4 200.33 212.51 203.67 215.21 200.28 217.53 196.97 214.73 200.19 212.4"/><polygon class="cls-38" points="200.19 212.4 200.33 212.51 203.67 215.21 200.28 217.53 196.97 214.73 200.19 212.4"/><polygon class="cls-38" points="200.41 211.49 200.54 211.61 203.89 214.3 200.49 216.63 197.19 213.82 200.41 211.49"/><polygon class="cls-38" points="205.95 214.05 206.09 214.16 208.8 216.35 205.92 218.72 202.73 216.38 205.95 214.05"/><polygon class="cls-38" points="206.68 208.55 206.82 208.66 209.54 210.86 206.65 213.22 203.47 210.88 206.68 208.55"/><polygon class="cls-38" points="207.27 203.12 207.41 203.23 210.13 205.43 207.25 207.79 204.06 205.45 207.27 203.12"/><polygon class="cls-38" points="212.5 205.27 212.64 205.38 215.36 207.57 212.48 209.94 209.29 207.59 212.5 205.27"/><polygon class="cls-38" points="217.59 207.76 217.73 207.87 220.45 210.07 217.57 212.43 214.38 210.09 217.59 207.76"/><polygon class="cls-38" points="223.07 210.82 223.21 210.93 225.93 213.12 223.04 215.49 219.86 213.15 223.07 210.82"/><polygon class="cls-38" points="232.99 204.3 233.13 204.41 235.85 206.61 232.96 208.97 229.77 206.63 232.99 204.3"/><polygon class="cls-33" points="231.38 230.45 231.51 230.56 234.23 232.76 231.35 235.12 228.16 232.78 231.38 230.45"/><polygon class="cls-38" points="235.53 233.07 235.67 233.19 238.38 235.38 235.5 237.75 232.31 235.4 235.53 233.07"/><polygon class="cls-38" points="241.26 235.78 241.4 235.9 244.12 238.09 241.24 240.46 238.05 238.11 241.26 235.78"/><polygon class="cls-38" points="250.92 241.87 251.06 241.98 253.78 244.18 250.9 246.54 247.71 244.2 250.92 241.87"/><polygon class="cls-38" points="246.48 238.93 246.62 239.04 249.34 241.23 246.46 243.6 243.27 241.26 246.48 238.93"/><polygon class="cls-38" points="252.48 234.95 252.62 235.06 255.34 237.25 252.45 239.62 249.26 237.28 252.48 234.95"/><polygon class="cls-38" points="247.43 232.56 247.57 232.67 250.29 234.86 247.41 237.23 244.22 234.88 247.43 232.56"/><polygon class="cls-38" points="259.05 225.06 259.19 225.17 261.91 227.37 259.03 229.73 255.84 227.39 259.05 225.06"/><polygon class="cls-38" points="253.14 228.98 253.28 229.09 256 231.29 253.12 233.65 249.93 231.31 253.14 228.98"/><polygon class="cls-38" points="258.01 231.49 258.15 231.6 260.87 233.79 257.99 236.16 254.8 233.82 258.01 231.49"/><polygon class="cls-38" points="269.49 231.32 269.63 231.43 272.35 233.62 269.46 235.99 266.27 233.65 269.49 231.32"/><polygon class="cls-38" points="263.72 234.08 263.86 234.2 266.58 236.39 263.7 238.75 260.51 236.41 263.72 234.08"/><polygon class="cls-38" points="263.67 228.14 263.81 228.26 266.52 230.45 263.64 232.81 260.45 230.47 263.67 228.14"/><polygon class="cls-38" points="273.81 227.91 273.95 228.03 276.67 230.22 273.79 232.58 270.6 230.24 273.81 227.91"/><polygon class="cls-38" points="268.91 225.03 269.05 225.14 271.77 227.34 268.89 229.7 265.7 227.36 268.91 225.03"/><polygon class="cls-38" points="264.07 222.58 264.21 222.69 266.93 224.89 264.04 227.25 260.85 224.91 264.07 222.58"/><polygon class="cls-38" points="241.58 229.44 241.72 229.55 244.44 231.75 241.55 234.11 238.37 231.77 241.58 229.44"/><polygon class="cls-38" points="256.92 237.66 257.06 237.77 259.78 239.97 256.89 242.33 253.7 239.99 256.92 237.66"/><polygon class="cls-38" points="228.43 207.41 228.57 207.53 231.29 209.72 228.41 212.09 225.22 209.74 228.43 207.41"/><polygon class="cls-38" points="216.9 213.87 217.04 213.99 219.76 216.18 216.88 218.54 213.69 216.2 216.9 213.87"/><polygon class="cls-38" points="212.12 211.1 212.25 211.22 214.97 213.41 212.09 215.78 208.9 213.43 212.12 211.1"/><polygon class="cls-38" points="218.85 201.75 218.99 201.86 221.7 204.06 218.82 206.42 215.63 204.08 218.85 201.75"/><polygon class="cls-38" points="222.96 205.71 223.09 205.82 225.81 208.02 222.93 210.38 219.74 208.04 222.96 205.71"/><polygon class="cls-38" points="213.33 199.6 213.47 199.71 216.18 201.91 213.3 204.27 210.11 201.93 213.33 199.6"/><polygon class="cls-38" points="217.88 196.31 218.02 196.43 220.74 198.62 217.85 200.99 214.67 198.64 217.88 196.31"/><polygon class="cls-38" points="223.92 198.87 224.06 198.98 226.78 201.17 223.9 203.54 220.71 201.19 223.92 198.87"/><polygon class="cls-38" points="228.39 201.58 228.53 201.69 231.25 203.88 228.36 206.25 225.18 203.91 228.39 201.58"/><polygon class="cls-39" points="273.58 234.68 273.72 234.8 276.44 236.99 273.56 239.35 270.37 237.01 273.58 234.68"/><polygon class="cls-39" points="253.5 222.86 253.63 222.97 256.35 225.16 253.47 227.53 250.28 225.19 253.5 222.86"/><polygon class="cls-39" points="258.21 219.35 258.35 219.47 261.07 221.66 258.18 224.02 254.99 221.68 258.21 219.35"/><polygon class="cls-39" points="248.2 226.53 248.34 226.64 251.05 228.84 248.17 231.2 244.98 228.86 248.2 226.53"/><polygon class="cls-39" points="262.58 241.58 262.72 241.69 265.14 243.66 256.17 249.39 252.75 247.49 262.58 241.58"/><polygon class="cls-38" points="211.02 217.22 211.16 217.33 220.74 222.98 215.66 224.89 207.81 219.55 211.02 217.22"/><polygon class="cls-38" points="195.68 209.42 195.82 209.53 199.16 212.22 195.77 214.55 192.46 211.75 195.68 209.42"/><polygon class="cls-39" points="279.12 231.77 279.26 231.88 281.98 234.08 279.09 236.44 275.9 234.1 279.12 231.77"/><polygon class="cls-38" points="196.95 203.24 197.07 203.34 204 208.26 201.23 210.69 194.13 205.32 196.95 203.24"/><polygon class="cls-38" points="242.39 223.47 242.53 223.59 245.25 225.78 242.36 228.14 239.17 225.8 242.39 223.47"/><polygon class="cls-38" points="279.18 231.14 279.32 231.25 282.03 233.45 279.15 235.81 275.96 233.47 279.18 231.14"/><polygon class="cls-38" points="273.58 234.08 273.72 234.2 276.44 236.39 273.56 238.75 270.37 236.41 273.58 234.08"/><polygon class="cls-38" points="268.31 237.46 268.45 237.57 271.16 239.76 268.28 242.13 265.09 239.79 268.31 237.46"/><polygon class="cls-38" points="262.45 240.83 262.59 240.94 265.31 243.14 255.8 248.84 252.68 247 262.45 240.83"/><polygon class="cls-38" points="257.96 219.12 258.1 219.23 260.81 221.43 257.93 223.79 254.74 221.45 257.96 219.12"/><polygon class="cls-38" points="236.97 226.65 237.11 226.76 239.82 228.95 236.94 231.32 233.75 228.97 236.97 226.65"/><polygon class="cls-38" points="253.17 222.47 253.31 222.58 256.03 224.77 253.15 227.13 249.96 224.79 253.17 222.47"/><polygon class="cls-38" points="247.98 226.16 248.12 226.27 250.84 228.46 247.96 230.83 244.77 228.48 247.98 226.16"/><path class="cls-40" d="M272.62,228c-4.56-2.6-11.82,1.26-11.82,1.26s1.67-3.51,5.24-3.46,5-.4,5.42-2.13c.41-1.51-3.73-1.88-4.77-2,.21-2.62-3.88-3.07-3.88-3.07a2.09,2.09,0,0,0-1.21-1.84c-2.42-2.25-6.92,2.77-7.09,1.9s-2.25-1.9-2.25-1.9c-5-3.11-5-.87-5-.87s-7.27,7.44-9.86,10.73-6.06,11.59-6.06,11.59l-.23-.06s7.78,8.77,8.65,7.38,10-6.34,11.53-7.38,11.71-6.23,16-6.51S277.17,230.54,272.62,228Zm-22.84-5.08-1.5-.63,1-1,1.27.81Zm9.86-1-.46,1s-.92,1.09-1.09,1.32-1.56.35-1.56.35l.29-1.44,2-2.31C259.93,220.45,259.64,221.89,259.64,221.89Z" transform="translate(-11.05 -11.05)"/><path class="cls-29" d="M240.8,88l84.09,48.07a6.2,6.2,0,0,1,3.12,5.41l-.5,70.6-87.2-47.89a5,5,0,0,1-2.59-4.36l-.15-69.95A2.16,2.16,0,0,1,240.8,88Z" transform="translate(-11.05 -11.05)"/><path class="cls-13" d="M228.74,204c.26-.09,2.59-2.25,2.59-2.25L234.1,204l-2.68,1.82Z" transform="translate(-11.05 -11.05)"/><polyline class="cls-41" points="220.71 194.99 224 197.58 226.5 195.59 223.82 193.26 221.06 194.99"/><path class="cls-42" d="M244.38,448.3s3.63,1,5.36,6.49a11,11,0,0,0,3.55,5.36L454.56,344.77l-14.79-9.08Z" transform="translate(-11.05 -11.05)"/><path class="cls-43" d="M290.13,135.87,263,122.7a1.7,1.7,0,0,1-.68-1.81h0c.14-.75.69-1.15,1.22-.89l27.08,13.16a1.74,1.74,0,0,1,.69,1.82h0C291.2,135.72,290.65,136.13,290.13,135.87Z" transform="translate(-11.05 -11.05)"/><path class="cls-44" d="M311.63,146.4l-15.85-7.7a1.73,1.73,0,0,1-.69-1.82h0c.15-.74.7-1.14,1.22-.89l15.85,7.71a1.72,1.72,0,0,1,.69,1.81h0C312.7,146.26,312.15,146.66,311.63,146.4Z" transform="translate(-11.05 -11.05)"/><path class="cls-45" d="M311.76,150.92l-35.11-17.07A1.71,1.71,0,0,1,276,132h0c.14-.74.69-1.14,1.22-.89l35.11,17.07A1.71,1.71,0,0,1,313,150h0C312.84,150.77,312.29,151.17,311.76,150.92Z" transform="translate(-11.05 -11.05)"/><path class="cls-46" d="M312,156.34l-47.45-23.06a1.72,1.72,0,0,1-.68-1.82h0c.14-.74.69-1.15,1.22-.89l47.45,23.07a1.7,1.7,0,0,1,.68,1.81h0C313.08,156.2,312.53,156.6,312,156.34Z" transform="translate(-11.05 -11.05)"/><path class="cls-46" d="M292.4,152.46l-27.09-13.17a1.72,1.72,0,0,1-.69-1.81h0c.15-.75.7-1.15,1.22-.89l27.09,13.16a1.72,1.72,0,0,1,.68,1.82h0C293.47,152.32,292.92,152.72,292.4,152.46Z" transform="translate(-11.05 -11.05)"/><path class="cls-46" d="M312.4,161.71l-16.15-7.85a1.73,1.73,0,0,1-.69-1.82h0c.15-.74.7-1.14,1.22-.89L312.93,159a1.69,1.69,0,0,1,.69,1.81h0C313.47,161.57,312.92,162,312.4,161.71Z" transform="translate(-11.05 -11.05)"/><path class="cls-47" d="M312.59,166.45l-35.12-17.07a1.7,1.7,0,0,1-.68-1.81h0c.14-.75.69-1.15,1.22-.89l35.11,17.07a1.7,1.7,0,0,1,.68,1.81h0C313.66,166.31,313.11,166.71,312.59,166.45Z" transform="translate(-11.05 -11.05)"/><path class="cls-48" d="M261.53,147l-7.28-3.54a1.7,1.7,0,0,1-.68-1.81h0c.14-.75.69-1.15,1.22-.89l7.27,3.53a1.74,1.74,0,0,1,.69,1.82h0C262.6,146.83,262.05,147.23,261.53,147Z" transform="translate(-11.05 -11.05)"/><path class="cls-13" d="M313.09,172l-47.65-23.16a1.71,1.71,0,0,1-.68-1.82h0c.14-.74.69-1.14,1.22-.89l47.65,23.17a1.7,1.7,0,0,1,.68,1.81h0C314.17,171.81,313.62,172.21,313.09,172Z" transform="translate(-11.05 -11.05)"/><path class="cls-49" d="M266.85,144.55l-6.92-3.36a1.74,1.74,0,0,1-.69-1.82h0c.15-.74.7-1.14,1.22-.89l6.92,3.37a1.69,1.69,0,0,1,.69,1.81h0C267.93,144.41,267.38,144.81,266.85,144.55Z" transform="translate(-11.05 -11.05)"/><polygon class="cls-50" points="241.59 139.18 241.54 140.01 243.28 141.08 241.33 141.56 241.23 142.37 244.39 141.48 244.41 141.07 241.59 139.18"/><polygon class="cls-50" points="240.92 97.33 240.93 98.07 242.41 99 240.84 99.45 240.8 100.17 243.35 99.35 243.34 98.98 240.92 97.33"/><polygon class="cls-50" points="239.09 97.14 239.16 97.91 237.76 98.24 239.38 99.37 239.49 100.14 236.85 98.19 236.82 97.82 239.09 97.14"/><polygon class="cls-50" points="237.6 138.39 237.51 139.14 235.63 139.74 237.41 140.86 237.38 141.57 234.44 139.81 234.48 139.45 237.6 138.39"/><path class="cls-50" d="M251.75,149.73,249.1,155a.25.25,0,0,1-.4.05l-.19-.18a.43.43,0,0,1-.11-.5l2.65-5.24a.23.23,0,0,1,.39-.06l.19.18A.46.46,0,0,1,251.75,149.73Z" transform="translate(-11.05 -11.05)"/><path class="cls-29" d="M261.09,424.9s-2.13.84-1.89,6,2.48,9.6,8.84,11.64,8.72-.36,11.78-2.64,8.61-3.6,13.91-5.28,24-7.8,23.81-20.77Z" transform="translate(-11.05 -11.05)"/><path class="cls-30" d="M267.57,414.31a26,26,0,0,0-5.11,6.14c-2.73,4.28-4.28,7.1-3.21,8.2s10.1,9.3,11.29,9.3,7.37-.85,10-3.06,8.68-1.83,11.53-2.08,22.11-11,24.25-14.56,1.9-5-.59-7.59-9.51-6.61-12.37-4.65-11.76,4.16-14.86,4.77S267.57,414.31,267.57,414.31Z" transform="translate(-11.05 -11.05)"/><rect class="cls-31" x="290.24" y="413.86" width="13.44" height="4.01" transform="translate(347.55 -102.45) rotate(42.46)"/><rect class="cls-31" x="296.91" y="411.24" width="13.44" height="4.01" transform="translate(347.53 -107.65) rotate(42.46)"/><path class="cls-35" d="M289.22,411.31s-3.57,11.54-10,11.54c-5.85,0-6.31-.57-8-1.79l-.56-.41c-2.19-1.49.69,4.5,8.07,4.5C278.73,425.15,289.22,427.11,289.22,411.31Z" transform="translate(-11.05 -11.05)"/><path class="cls-40" d="M264.29,397.79l17.38-6.66s4.76,12.2,4.93,15l-8.13,9.17-9.17-.52S265.5,403.24,264.29,397.79Z" transform="translate(-11.05 -11.05)"/><path class="cls-31" d="M268.93,413.39s12.8,2.31,17.87-9.69c0,0,2.23,8.64,1.14,11s-3.73,7.46-7.11,8.11S268.23,425.71,268.93,413.39Z" transform="translate(-11.05 -11.05)"/><path class="cls-51" d="M316.59,240.57l8.53,34s9.93,1.68,15.52,1.54,12-2.8,13-6.71,4.76-26.15,4.76-26.15Z" transform="translate(-11.05 -11.05)"/><path class="cls-52" d="M315.61,234.28s-1.82,12.73,4.19,15.38a53.92,53.92,0,0,0,20.14,4.06c6.15,0,17.62-2.94,20.83-9.79l.11-11.47Z" transform="translate(-11.05 -11.05)"/><ellipse class="cls-53" cx="326.57" cy="221.42" rx="23.26" ry="13.23"/><ellipse class="cls-8" cx="326.79" cy="221.08" rx="18.55" ry="10.2"/><path class="cls-54" d="M323.13,222.76s-11.07-6.46-8.42-11.65,8.77-8.31,12.8-2.54c0,0-2.65-17.64,11.88-18.11s14.3,13.73,14.3,13.73S357.27,201,361,201s6.22,3.92,6.22,7.38S365.8,216,359.46,216s-9-.92-10,1.15-4.15,14-4.15,14-2.19,7-7,6.46-7.38-5.65-8-9.11S323.13,222.76,323.13,222.76Z" transform="translate(-11.05 -11.05)"/><ellipse class="cls-55" cx="328.52" cy="190.19" rx="11.46" ry="10.51"/><ellipse class="cls-56" cx="309.15" cy="201.17" rx="4.63" ry="6.36"/><ellipse class="cls-55" cx="349.97" cy="195.77" rx="4.37" ry="5.8"/><ellipse class="cls-54" cx="307.98" cy="199.92" rx="2.94" ry="3.46"/><ellipse class="cls-57" cx="326.53" cy="187.98" rx="6.36" ry="7.52"/><ellipse class="cls-9" cx="349.93" cy="195.9" rx="2.25" ry="3.59"/><ellipse class="cls-58" cx="303.87" cy="259.8" rx="12.31" ry="7.06"/><ellipse class="cls-51" cx="313.58" cy="272.67" rx="9.3" ry="3.85" transform="matrix(0.98, -0.21, 0.21, 0.98, -60.81, 59.95)"/><ellipse class="cls-59" cx="301.69" cy="286.42" rx="18.92" ry="10.28"/><ellipse class="cls-7" cx="304.63" cy="283.24" rx="21.86" ry="12.91"/><ellipse class="cls-60" cx="304.46" cy="281.65" rx="13.03" ry="7.69"/><path class="cls-61" d="M329.55,273.9a16.15,16.15,0,0,0-2.15.16,4.17,4.17,0,0,1-1.79,1.93c-.81.36-1.51.89-2.28,1.32a17.37,17.37,0,0,1-3.38,1.24,4.25,4.25,0,0,1-3.91-.76c-.87.41-1.39.68-1.39.68l-13.43-5.25s.58,2.78,2.6,10.09,2.52,10,4.12,11.69a10.2,10.2,0,0,0,7.15,2.61c2.69,0,8.58.51,10.93-8.91,0,0,10.85-1.85,10.85-8.08C336.87,273,335.69,273.9,329.55,273.9Zm2.61,8.07a24.2,24.2,0,0,1-6.05,3.11s2-8.16,5-7.57S335.44,279.7,332.16,282Z" transform="translate(-11.05 -11.05)"/><ellipse class="cls-62" cx="303.59" cy="259.52" rx="13.98" ry="7.9"/><path class="cls-63" d="M305.2,269.17s-6.75-5.36,4-20.41c4-8,6.22-14.7-3.46-23.35-6.92-6.4.86-15.92,8.82-24.39,0,0,2.8,16.59,10.83,25.12s12.06,25.45,5.69,32.82-2.43,11.61-2.43,11.61Z" transform="translate(-11.05 -11.05)"/><path class="cls-64" d="M219.91,329s0,.12,0,.35c0,2,0,12.25-3.7,16.6-4.15,4.85-42.78,30.68-46.59,33.33s-12.8,13.73-28.71,15.34-23.65,1.15-35.76-1.84,1.39-3.58,1.39-3.58L133,381.79l5.42-11.07,49.13-19.26,30.56-19.61" transform="translate(-11.05 -11.05)"/><path class="cls-65" d="M13.71,245.65l-2.65-17.24s3.52-15.8,18.57-12,65.56,32.7,65.56,32.7l11.94,19.2,12.45,61.41,1.21,42.21-18.51,16.43s-24.22-8.47-31.48-12.28-26.47-14.36-29.58-23.87S27.9,308.79,27.9,308.79,19.25,271.94,13.71,245.65Z" transform="translate(-11.05 -11.05)"/><path class="cls-29" d="M11.06,228.41s-1.15-34.6,31.37-28.14c32.52,16.6,59.28,32.29,67.12,41.28s23.75,69,26.29,88.8,6,39.91-3.46,55.82c-3.69,6.69-24.22,7.84-33.21,4.15s-17.07-8.07-17.07-8.07,17.53,6.69,30.22-4.38,4.15-49.59,4.15-49.59-13.84-54.2-18.22-66.43S77,239.71,63.42,232.79s-21.45-14.07-36-17.53C27.44,215.26,11.75,217.57,11.06,228.41Z" transform="translate(-11.05 -11.05)"/><path class="cls-66" d="M139.07,356s6.46,5.3,17.07,4.84,43.59-16.38,63.89-32.29a3.21,3.21,0,0,1-.23.81c-.64,1.61-3.06,5.59-12.23,11.64-12.22,8.08-37.82,22.61-51.89,27.68s-17.3,2.08-17.3,2.08Z" transform="translate(-11.05 -11.05)"/><path class="cls-67" d="M113,394.82s7,8,7,30.91-9.8,34.37-9.8,34.37-.69,11.41,17.76,11.41,14.53-12.57,14.53-12.57-9-9.92-9-33.79,7.39-30.56,7.39-30.56Z" transform="translate(-11.05 -11.05)"/><path class="cls-67" d="M107.24,455.83s-3.69,2-3.69,9.46,11.19,11.41,25.37,11.41,21.34-5.53,21.34-14.41c0-3.69-3.81-6.35-3.81-6.35s18.11,12,18.11,23.41S146.91,500.57,128,500.57s-38.75-9-38.75-20.29S107.24,455.83,107.24,455.83Z" transform="translate(-11.05 -11.05)"/><path class="cls-68" d="M206.38,296.1l-59.59,34.66a2.12,2.12,0,0,0-.16,3.58l8.86,6.23a6,6,0,0,0,6.53.24l60.83-36.37a2.21,2.21,0,0,0,.12-3.71l-6.16-4.24A9.74,9.74,0,0,0,206.38,296.1Z" transform="translate(-11.05 -11.05)"/><path class="cls-69" d="M146,332v11.08a2.45,2.45,0,0,0,1.17,2.09l7.69,4.69a9.32,9.32,0,0,0,9.55.1l58.35-34.06a3.19,3.19,0,0,0,1.59-2.89L224,301.75l-62.25,39.6a4.75,4.75,0,0,1-5.7-.46Z" transform="translate(-11.05 -11.05)"/><path class="cls-70" d="M378.07,234.43a.71.71,0,0,0-.79.28,1.26,1.26,0,0,0-.18.87.38.38,0,0,0,.15.32.37.37,0,0,0,.21,0,.7.7,0,0,0,.33-1.24" transform="translate(-11.05 -11.05)"/><path class="cls-71" d="M379.94,236.91a.48.48,0,0,0-.69.06,1.06,1.06,0,0,0-.15.76.78.78,0,0,0,.12.4.55.55,0,0,0,.37.2.71.71,0,0,0,.35-1.37" transform="translate(-11.05 -11.05)"/><path class="cls-72" d="M369.64,256.37s-4.68-6.66,1.72-16.26,18.95-34.6,37.8-34.6,19.72,17.82,19.72,21.46-2.12,14.22-10.81,22.92l-1.56-6.15a23.06,23.06,0,0,0,7.7-17.64c0-11.68-8.21-15.83-15.22-15.83s-8.48.09-20.85,12.2-21.36,23.7-16.34,32.26Z" transform="translate(-11.05 -11.05)"/><path class="cls-73" d="M392.13,222.53s-3.8-5.77-9.51-6.29-10.09,5.59-11.48,7.55-3.63,8.08-3.63,11.42,4.9,9,8.13,9.8,10.55-2.3,14.07-7.78S393.34,225.47,392.13,222.53Z" transform="translate(-11.05 -11.05)"/><path class="cls-45" d="M378.49,224.54a15,15,0,0,1,10.93-4.93,12.48,12.48,0,0,0-7.24-3.66c-5.71-.52-10.09,5.59-11.48,7.56s-3.63,8.07-3.63,11.41c0,2.72,3.24,7,6.19,8.89C372.59,233.36,373.36,230.3,378.49,224.54Z" transform="translate(-11.05 -11.05)"/><path class="cls-74" d="M384,225.93s-3.46.52-6.22,5.88-.7,7.15.92,7.38,4.09-.46,7.9-5.77S385.81,225.12,384,225.93Z" transform="translate(-11.05 -11.05)"/><path class="cls-48" d="M380.15,231.12a.16.16,0,0,0,.05-.22.49.49,0,0,0-.19-.16l-.45-.27a.72.72,0,0,0-.31-.11c-.25,0-.41.3-.38.55a2,2,0,0,0,.33.68,1.78,1.78,0,0,0,.33.48.42.42,0,0,0,.54,0,.6.6,0,0,0,.12-.32l.1-.71" transform="translate(-11.05 -11.05)"/><path class="cls-48" d="M380.54,234.32a.56.56,0,0,1,.32-.77.71.71,0,0,1,.8.36.44.44,0,0,1,0,.37.52.52,0,0,1-.37.25,2.11,2.11,0,0,1-.75,0,.21.21,0,0,1-.11,0,.17.17,0,0,1,0-.12,2.24,2.24,0,0,1,.05-.58" transform="translate(-11.05 -11.05)"/><path class="cls-48" d="M382.06,235.68a.69.69,0,0,1,.46-1.13.65.65,0,0,1,.48.16,1.11,1.11,0,0,1,.21.84.27.27,0,0,1,0,.16.27.27,0,0,1-.23.08h-.59a.49.49,0,0,1-.24,0c-.17-.1-.16-.4-.35-.48" transform="translate(-11.05 -11.05)"/><path class="cls-48" d="M383.5,232.26a.41.41,0,0,0-.58.07,1.1,1.1,0,0,0-.18.62,1.21,1.21,0,0,0,.05.57.43.43,0,0,0,.47.27.58.58,0,0,0,.27-.2,2.13,2.13,0,0,0,.41-.79.47.47,0,0,0,0-.33.21.21,0,0,0-.27-.14" transform="translate(-11.05 -11.05)"/><path class="cls-48" d="M383.62,229.79h-.46a2,2,0,0,0-.25.7.63.63,0,0,0,.31.64.74.74,0,0,0,.36.05.94.94,0,0,0,.3-.06.64.64,0,0,0,.37-.66.65.65,0,0,0-.52-.55" transform="translate(-11.05 -11.05)"/><path class="cls-48" d="M386,228.68a1.53,1.53,0,0,0-.7.16.48.48,0,0,0-.22.61c.15.29.57.24.89.23a1.85,1.85,0,0,0,.58,0,.4.4,0,0,0,.3-.44c-.11-.37-.79-.22-.95-.57" transform="translate(-11.05 -11.05)"/><ellipse class="cls-41" cx="362.69" cy="247.97" rx="4.71" ry="5.15"/><path class="cls-41" d="M416.93,266.1c-11.24,7-15.65.18-18-4.15s4.59-23.35,15.14-21.36,10.46,10.29,10.46,10.29S426.19,258.58,416.93,266.1Z" transform="translate(-11.05 -11.05)"/><path class="cls-73" d="M409,249.7c-2.5,2.34-7.61,10.64-4.58,16.87a6.18,6.18,0,0,0,2.17,2.49,11.41,11.41,0,0,0,6.62-.89,36.13,36.13,0,0,1-3.86-1.6c-1.3-.78-4.5-7.18,4.15-15.31,5.79-5.44,9.33-3,11-.82a10.1,10.1,0,0,0-2.75-6C416.29,242.25,411.07,247.77,409,249.7Z" transform="translate(-11.05 -11.05)"/><path class="cls-75" d="M168.88,345l.69,22.6s.41,3.52-2.71,3.52-2.12-2.68-6-2.68c-2.6,0-3,2.73-3,3.72s1.17,5.23,8.26,5.23a10.46,10.46,0,0,0,10.59-10.59c0-4.76-.43-26.38-.43-26.38Z" transform="translate(-11.05 -11.05)"/><path class="cls-76" d="M172.08,81.31s1,1.14,1.28,7.63,0,11.36,1.14,14.47,2.34,7.77,5.39,12.06l4.06,3,.26-3.33-3.88-10.74-2.94-13.12Z" transform="translate(-11.05 -11.05)"/><polygon class="cls-77" points="150.64 148.94 150.54 151.19 182.31 173.37 215.53 150.5 212.7 151.19 182.89 168.19 150.64 148.94"/><polygon class="cls-31" points="149.7 112.96 181.91 131.8 215.04 112.38 215.04 150.13 182.46 167.94 150.47 150.75 149.7 112.96"/><polygon class="cls-31" points="149.71 112.98 181.91 131.25 180.84 169.85 150.25 151.58 149.71 112.98 181.91 131.25 215.24 111.61 199.12 100.37 164.32 103.5 149.71 112.98"/><path class="cls-78" d="M176.45,118.3s-.34,1.71-.34,2.06-8.26.09-9.33,1.51c0,0,4,1.08,4.54.93s.25,0,.25,0-2.3,3.66-2.25,5.67a27.25,27.25,0,0,1,6.4-.1s-2,2-1.83,3.22L193,142.39l29.08-17.17s-5.4-6.92-5.21-9.07l-9.77-.24-1.47,1.32,9,5.47S192.72,135.06,193,135.41s-20.48-12-20.48-12l5.77-3.27A21.1,21.1,0,0,1,176.45,118.3Z" transform="translate(-11.05 -11.05)"/><polygon class="cls-79" points="181.91 131.25 182.01 169.76 215.53 150.5 215.24 111.61 181.91 131.25"/><polygon class="cls-80" points="161.98 119.82 161.59 124.51 167.06 123.82 167.74 134.38 171.16 131.74 174.88 142.2 177.52 137.12 180.84 145.42 182.99 140.14 189.54 136.92 189.83 141.71 199.8 128.91 202.54 131.25 201.56 124.7 208.4 124.41 207.13 116.89 181.91 131.25 161.98 119.82"/><path class="cls-16" d="M368.91,307c-1.61,1-3.52,1.9-5.11,2.94s-3,1.47-4.38,2.45l-.08,0-43,152.73a3,3,0,0,0,1.4,3.46l.88.52a3.09,3.09,0,0,0,2.57.24l2-.73a3,3,0,0,0,1.91-2L370,310.44A3.3,3.3,0,0,0,368.91,307Z" transform="translate(-11.05 -11.05)"/><path class="cls-81" d="M178.26,120.16l-5.77,3.27,20.48,12,21.69-12.71-9-5.47a23.75,23.75,0,0,0-4.25,3.57C200,122.51,184.61,119,184.61,119l-3-.15Z" transform="translate(-11.05 -11.05)"/><path class="cls-82" d="M184.91,124a14.94,14.94,0,0,1-2.3,1.71c-.88.44-3.86,0-4.79,1l15.15,8.7,14.61-8.56a28.16,28.16,0,0,1-2.69-3c-.93-1.32-3.22-3.47-4.1-3.67s-9.43.78-9.43.78l-3.91,1.37Z" transform="translate(-11.05 -11.05)"/><path class="cls-83" d="M184.8,77.08s-3.44-11.58-3.37-21,2-14.95,2-23.09-2-6.08-2-12.68l11.14,21.7a14.52,14.52,0,0,1,2.06,8.87c-.44,5.27-1,9.3-2.5,12.46S189,78.91,189,78.91l5.35-4s8.21-8.72,9.16-12.6,3-18.91,3-23.75.66-18.11.66-18.11l3.81,63-.88,8.94,13.71-9.82,4.76-33.5s5.57,13.71,5.57,20.53-3.15,12-10.92,18.17S213.46,98,213.46,98L189.2,88.88l-5-6.52Z" transform="translate(-11.05 -11.05)"/><path class="cls-84" d="M176.65,64.7s5.76,10.94,6.55,13.78c0,0-1-24.14.58-30.49s2.15-17.3-.58-21.41a12.23,12.23,0,0,1-1.76-8,56.67,56.67,0,0,0,5.18,8.7c2.44,3,7.91,13.49,7.42,24.33s-3.91,25.61-3.91,25.61,6.55-17.79,7.73-35.18c0,0-.49-12.9-.2-15.15,0,0,2.83,13,3.23,15.54s1,21.4.39,26c0,0,3.81-2,5.37-17,0,0,1.37-28.34-4.2-40.36,0,0,22.18,21.2,12.21,59.32a10.31,10.31,0,0,1,1.76-2.54,11.16,11.16,0,0,1-.78,6.06s-4.1,11.92-4.2,14.17,0-.59,0-.59,2.44-1.37,6-13,.29-15.54,9.87-29.61c0,0,4.89,12,4.89,24.43s-9,19.55-13.29,22.48l-6.55,8.11s-10.16,9.48-9.87,9.38a53.63,53.63,0,0,1-3.13,4.5l-1.46-4,4.49-32.44-1.27-6.45-7.33,34.79-1.56,10.55-3.52-.1L180.46,92l-4.59-9.88S175.28,71.05,176.65,64.7Z" transform="translate(-11.05 -11.05)"/><path class="cls-83" d="M175.3,80.47s0,8.25.66,11,2.68,13.05,3.23,14.48,3.33,10.15,3.85,11.11,5,9.19,6.85,11.27l1.49,1.15s.09-1.32.27-5.61-1.91-10.63-3.12-14.4-5.05-16.09-10-23.71Z" transform="translate(-11.05 -11.05)"/><path class="cls-83" d="M193,123.31s-1.25,2.71-2.13,4.69,2.13,2.57,3.74.66S206.09,114,218.48,106a37.19,37.19,0,0,0,11.87-13.78A36,36,0,0,0,212,99.64S198.91,111.22,193,123.31Z" transform="translate(-11.05 -11.05)"/><path class="cls-85" d="M193.46,127.39s9.23-15,12.21-18,15.25-11.63,19-13.54c0,0-9.72,11.49-15.78,16A84.52,84.52,0,0,0,193.46,127.39Z" transform="translate(-11.05 -11.05)"/><path class="cls-86" d="M202.5,65.26a61.4,61.4,0,0,0-7,15.61c-2.71,9.31-4.91,31.37-5.57,35.92l1.4,6.23,3.29.22a3.75,3.75,0,0,1-.36-3.3C195,118,203,96.41,204,86.37S204.7,68.19,202.5,65.26Z" transform="translate(-11.05 -11.05)"/><path class="cls-87" d="M199.86,83.51s-.59,8.58-2.49,13.34-5.94,20-5.72,27.93l2.78.36a41.61,41.61,0,0,1,.59-10.26c1-4.76,3.15-14.29,3.45-16.42S199.86,83.51,199.86,83.51Z" transform="translate(-11.05 -11.05)"/><path class="cls-85" d="M179.52,93.55s2.23,10.34,2.6,12,4,13.19,4.91,15.14c0,0-.36-3.52-.91-6.09s-2.24-9.38-2.72-11S180.22,95.06,179.52,93.55Z" transform="translate(-11.05 -11.05)"/><path class="cls-88" d="M184.76,88.13a63.65,63.65,0,0,1-.15,12S188.13,91.65,184.76,88.13Z" transform="translate(-11.05 -11.05)"/><path class="cls-85" d="M176.6,114.64s.24,4.25,10.55,8.65c0,0-3.86-3.47-5.27-4.5s-5.28-4-5.62-6,.34,2,.34,2" transform="translate(-11.05 -11.05)"/><path class="cls-83" d="M190.23,129.84l-.63-4.4a36.79,36.79,0,0,0-11.19-13.1,18.57,18.57,0,0,1-4-4.25c-1.91,12.41,9.72,15.78,12.61,17.3a5.63,5.63,0,0,1,3.08,4.25" transform="translate(-11.05 -11.05)"/><path class="cls-89" d="M459.53,367.68,422.2,277.43a3.78,3.78,0,0,0-.49-.83h0c-2.33.57-4.59,2.32-6.71,3.47-1.43.78-2.74,1.8-4.17,2.57a3.1,3.1,0,0,0,.23.71l39.67,88.87a3.61,3.61,0,0,0,3.3,2.14h1a3.63,3.63,0,0,0,2.94-1.51l1.22-1.71A3.59,3.59,0,0,0,459.53,367.68Z" transform="translate(-11.05 -11.05)"/><path class="cls-90" d="M474.32,243.17s-1.15,10.38.92,12,6.23.23,6.23-5.3S478,234.4,474.32,243.17Z" transform="translate(-11.05 -11.05)"/><path class="cls-90" d="M473.4,225.41s-1.38,7.15,2.08,8.07,3.69-6,2.53-7.84S473.63,222.41,473.4,225.41Z" transform="translate(-11.05 -11.05)"/><path class="cls-90" d="M479.86,232.79l.46,4.15S486.32,233.94,479.86,232.79Z" transform="translate(-11.05 -11.05)"/><path class="cls-90" d="M444.11,246.63s-2.08-.46-2.08,4.15,0,4.61,1.85,4.61,2.3-2.76,2.3-5.3S446.41,246.63,444.11,246.63Z" transform="translate(-11.05 -11.05)"/><path class="cls-90" d="M472.25,288.84s-3,5.07.46,6.69,2.53-2.77,2.53-3.92S475,286.53,472.25,288.84Z" transform="translate(-11.05 -11.05)"/><path class="cls-90" d="M460.48,187.35s-2.3,1.62-2.3,7.84,2.07,7.85,3.46,7.85,3.46-3.7,3.69-8.31S462.56,187.35,460.48,187.35Z" transform="translate(-11.05 -11.05)"/><path class="cls-90" d="M459.1,175.82s-2.54,1.38-2.54,5.53.69,4.39,2.08,4.39,3.69-1.85,3.23-5.08S461.64,175.36,459.1,175.82Z" transform="translate(-11.05 -11.05)"/><path class="cls-90" d="M478.24,151.83s-3,0-2.53,3.92,4.38,2.54,4.61.23S479.86,151.6,478.24,151.83Z" transform="translate(-11.05 -11.05)"/></svg>